<svg xmlns="http://www.w3.org/2000/svg" viewBox="0 0 1600 1200" xmlns:v="https://vecta.io/nano"><style><![CDATA[.Q{fill:#161616}.R{stroke:#161616}.S{stroke-miterlimit:10}.T{fill:#fff}.U{stroke-width:3}.V{stroke-width:2}.W{fill:#5222d0}]]></style><g fill="#e8e8e8"><path d="M288.6 806.1h269.1c1.9 0 1.9-3 0-3H288.6c-1.9 0-1.9 3 0 3h0zm305.9 4.8h736.7c1.9 0 1.9-3 0-3H594.5c-1.9 0-1.9 3 0 3h0z"/><path d="M1377.2 631.3c-21.4 16.2-31.6 41.9-37.3 67.3-7.2 32.1-9.8 65.4-8.4 98.2.8 18.9 3.1 37.7 6.6 56.3.4 1.9 3.3 1.1 2.9-.8-7.8-41.1-9-83.3-3.3-124.7 4.6-33.4 12.5-72.2 41-93.8 1.5-1 .1-3.7-1.5-2.5h0z"/><path d="M1378.7 632.3c7.7-3.2 15.8-6.6 24.3-6.7 4.7 0 8.2 1.4 12.4 3 2.9 1.1 4.8.8 7.6-.6 13.7-7.1 30.3-5.3 41.4 5.9 1.4 1.4 3.5-.7 2.1-2.1-9.8-10-25-13.8-38.3-9.4-1.5.5-2.9 1.1-4.3 1.7-3.2 1.6-5.3 1.9-9.1.9s-6.9-2.3-11-2.4c-9-.1-17.7 3.3-25.9 6.8-1.7.7-.9 3.6.8 2.9h0z"/><path d="M1463 633.6c8.5 14.1 3.1 26.8-5.9 38.8-8.8 11.7-18.1 22.9-23.6 36.6-5.7 14.3-8.7 30.5-10.7 45.7-2.3 17.3-1.9 34.9.4 52.2 2.1 15.7 5.9 31.1 10.9 46.1.6 1.8 3.5 1 2.9-.8-10.6-31.6-15.7-65.5-11.1-98.7 2.1-15.2 5.1-31.6 11.3-45.7 6.2-14.2 16.5-25.3 25.3-37.8 8.3-11.9 10.9-25 3.1-38-1-1.6-3.6-.1-2.6 1.6h0zm-121.4 216.8c-5.1 6.7 7.8 11.8 12.4 12.6 8.6 1.7 17.4-.7 24.1-6.2 1.5-1.2-.6-3.3-2.1-2.1-4.7 3.9-10.5 5.9-16.6 5.9-2.6 0-19.3-3.2-15.2-8.7 1.2-1.5-1.5-3-2.6-1.5h0z"/><path d="M1376.1 856.2c10.6 21.3 54.8 18.5 59-6.4.3-1.9-2.6-2.7-2.9-.8-3.8 22.2-44 24.7-53.5 5.6-.9-1.6-3.5-.1-2.6 1.6h0zm-39.1-11.1c9.8 8.2 24.2 8.1 33.8-.3 1.5-1.3-.7-3.4-2.1-2.1-8.3 7.3-21.1 7.4-29.6.3-1.4-1.3-3.6.9-2.1 2.1h0zm3-14c8.9 4 18.4 4.8 27.9 2.4 1.9-.5 1.1-3.4-.8-2.9-8.6 2.2-17.4 1.5-25.5-2.1-1.9-.8-3.4 1.8-1.6 2.6h0zm-5.7-33c10.8 4.1 22.4 3.3 32.7-2.1 1.7-.9.2-3.5-1.5-2.6-9.5 5-20.3 5.6-30.3 1.8-1.9-.7-2.7 2.2-.9 2.9h0zm2.1-19.2c8.2 4.8 17.9 4.8 26.2.2 1.7-.9.2-3.5-1.5-2.6-7.4 4.1-15.9 4-23.2-.2-1.6-.9-3.2 1.7-1.5 2.6h0zm84.4-134.6c13.8-1.8 27.4 6.6 31.5 20 .6 1.8 3.5 1.1 2.9-.8-4.5-14.5-19.3-24.3-34.4-22.2-1.9.3-1.9 3.3 0 3h0zm-5.8 20.3c9.2.9 17.3 5.9 22.2 13.7 1 1.6 3.6.1 2.6-1.5-5.5-8.8-14.5-14.3-24.8-15.2-1.9-.2-1.9 2.8 0 3h0zm-19.4 23.5c9.9-1.7 19.7 1.9 26.4 9.3 1.3 1.4 3.4-.7 2.1-2.1-7.5-8.2-18.4-11.9-29.4-10-1.8.2-1 3.1.9 2.8h0z"/><path d="M1416.1 627.5c-33.1 50.9-50 111.8-48.3 172.4.5 16.9 2.4 33.7 5.7 50.3.4 1.9 3.3 1.1 2.9-.8-11.8-58.8-5.1-121 18.6-176.1 6.6-15.4 14.6-30.2 23.7-44.3 1.1-1.6-1.5-3.1-2.6-1.5h0z"/><path d="M1376.4 839.8c-2 .1-3.3 1.7-2.7 3.7 1.1 3.4 7.8 5.1 10.8 6.2 10.4 3.7 21.7 3.8 32.3.9 1.9-.5 1.1-3.4-.8-2.9-6.7 1.9-13.6 2.5-20.5 1.6-3.2-.4-6.3-1.1-9.4-2.2-2-.7-3.9-1.4-5.7-2.3-1.1-.6-2.7-2-4-1.9 2-.1 2-3.1 0-3.1h0zm-2.6-6.7c13.7 7.6 30.8 6.4 43.3-3.1 1.5-1.2 0-3.8-1.5-2.6-11.6 8.9-27.4 10.2-40.3 3.1-1.7-.9-3.2 1.7-1.5 2.6h0zm-.5-23.5c17 8.4 37.7 5.7 51.9-6.9 1.4-1.3-.7-3.4-2.1-2.1-13.1 11.7-32.5 14.3-48.2 6.5-1.8-.9-3.3 1.7-1.6 2.5h0zm-3.1-25c11.5 3.6 23.5 3.1 34.6-1.5 1.8-.7 1-3.6-.8-2.9-10.6 4.4-22 5-33 1.5-1.9-.6-2.7 2.3-.8 2.9h0zm3-23.4c14.1 6.2 30.2 5.4 43.5-2.4 1.7-1 .2-3.6-1.5-2.6-12.3 7.3-27.4 8.2-40.5 2.4-1.7-.8-3.3 1.8-1.5 2.6h0zm-36.4-32c7.5 6.4 17.5 7.9 26.6 4.1 1.8-.7.2-3.3-1.5-2.6-7.8 3.3-16.5 1.9-23-3.6-1.4-1.2-3.5.9-2.1 2.1h0zm4.1-19.6c11 5.5 23 7 35.1 4.5 1.9-.4 1.1-3.3-.8-2.9-11.2 2.4-22.5.9-32.7-4.2-1.8-.9-3.3 1.7-1.6 2.6h0zm12.6-42c9.6-.2 18.7 2 27.1 6.7 1.7.9 3.2-1.6 1.5-2.6-8.8-4.9-18.5-7.4-28.6-7.2-1.9.1-1.9 3.1 0 3.1h0zm13.9-21.1c8.3.9 15.6 5 20.9 11.4 1.2 1.5 3.3-.6 2.1-2.1-5.9-7.1-14-11.3-23.1-12.3-1.8-.2-1.8 2.8.1 3h0zm9.7-10.8c8.9-12 26.7-14.5 38.8-6 1.6 1.1 3.1-1.5 1.5-2.6-13.5-9.6-33.1-6.2-42.9 7-1.2 1.6 1.4 3.1 2.6 1.6h0zm51.8 180c24.8.8 49.5.4 74.3-1.2 1.9-.1 1.9-3.1 0-3a766.97 766.97 0 0 1-74.3 1.2c-1.9 0-1.9 3 0 3h0zm32.5 11.7l40.2.3c13.3.1 27.8-1.5 40.8 1.9 1.9.5 2.7-2.4.8-2.9-12.6-3.3-26.6-2-39.6-2l-42.2-.3c-1.9 0-1.9 3 0 3h0zm2 10.5c6.7 1.2 13.3 1.7 20.1 1.4 1.9-.1 1.9-3.1 0-3-6.5.3-12.9-.1-19.3-1.3-1.9-.3-2.7 2.6-.8 2.9h0zM245.9 817.6l127.3 5.4c1.9.1 1.9-2.9 0-3l-127.3-5.4c-2-.1-1.9 2.9 0 3h0zm35.5 21.9a2020.94 2020.94 0 0 0 130.2 3.6c1.9 0 1.9-3 0-3a2020.94 2020.94 0 0 1-130.2-3.6c-2-.1-1.9 2.9 0 3h0zm51.8 24.3c17.3.1 34.6.9 51.8 2.5 1.9.2 1.9-2.8 0-3-17.2-1.6-34.5-2.4-51.8-2.5-1.9 0-1.9 3 0 3h0zm-84.8-557.4V458c0 1.9 3 1.9 3 0V306.4c0-1.9-3-1.9-3 0h0z"/><path d="M248.2 305.4h164.6c1.9 0 1.9-3 0-3H248.2c-1.9 0-1.9 3 0 3h0z"/><path d="M412.3 306v145.9c0 1.9 3 1.9 3 0V306c0-2-3-2-3 0h0zm-162 154.6h162.5c1.9 0 1.9-3 0-3H250.3c-1.9 0-1.9 3 0 3h0zm12.2-142.9l.9 46.4c0 1.9 3 1.9 3 0l-.9-46.4c0-1.9-3-1.9-3 0h0z"/><path d="M266.5 318.1c44.4-2.7 88.8-2.7 133.2-.1 1.9.1 1.9-2.9 0-3-44.4-2.6-88.8-2.6-133.2.1-1.9.1-1.9 3.1 0 3h0z"/><path d="M397.7 316.3l.1 37.7c0 1.9 3 1.9 3 0l-.1-37.7c0-1.9-3-1.9-3 0h0zM265 364.2c43.5 1.4 87 1 130.4-1 1.9-.1 1.9-3.1 0-3-43.4 2-86.9 2.3-130.4 1-1.9-.1-1.9 2.9 0 3h0zm2.6 20.2l1.4 52.2c.1 1.9 3.1 1.9 3 0l-1.4-52.2c-.1-2-3.1-2-3 0h0zm22.2 2.9c1.9 15.4 3.2 30.8 3.8 46.3.1 1.9 3.1 1.9 3 0-.6-15.5-1.9-30.9-3.8-46.3-.2-1.8-3.2-1.9-3 0h0zm26.7.7l1.9 44.9c.1 1.9 3.1 1.9 3 0l-1.9-44.9c-.1-1.9-3.1-1.9-3 0h0zm31.2-2.9l1.1 45.6c0 1.9 3 1.9 3 0l-1.1-45.6c0-1.9-3-1.9-3 0h0zm31.8 1.5c.8 14.2.9 28.5.5 42.7-.1 1.9 2.9 1.9 3 0 .4-14.3.3-28.5-.5-42.7-.1-2-3.1-2-3 0h0z"/><path d="M265.1 401.2c46.2-3.7 92.6-5 139-4 1.9 0 1.9-3 0-3-46.4-1-92.7.3-139 4-2 .2-2 3.2 0 3h0zm1.4 17.2c44.9-1.9 89.8-2.2 134.7-1.1 1.9.1 1.9-2.9 0-3-44.9-1.2-89.8-.8-134.7 1.1-2 .1-2 3.1 0 3h0zm2.1 19.4l135.5-2.3c1.9 0 1.9-3 0-3l-135.5 2.3c-1.9 0-1.9 3 0 3h0zm145.2 21.6l1.2-6.4-2.9-.4v5.4h3v-11.4c0-1.9-3-1.9-3 0V458c0 1.9 3 1.9 3 0v-5.4c0-1.6-2.6-2.1-2.9-.4l-1.2 6.4c-.5 1.9 2.4 2.7 2.8.8h0z"/><path d="M413.4 307.6v147c0 1.9 3 1.9 3 0v-147c0-1.9-3-1.9-3 0h0zM274.7 333l.7 15.2c.1 1.9 3.1 1.9 3 0l-.7-15.2c-.1-2-3.1-2-3 0h0z"/><path d="M275.9 332.6h8.5c-.5-.4-1-.7-1.4-1.1l1.8 7.8c.3 1.2.6 2.5.6 3.8-.1 1.8-2.1 5.3-4.1 2.8-1.2-1.5-3.3.6-2.1 2.1 2.2 2.8 6.7 1.7 8.3-1.2 2.6-4.5-.6-11.7-1.6-16.2-.1-.6-.8-1.1-1.4-1.1H276c-2.1.1-2.1 3.1-.1 3.1h0zm15.9-.4a84.86 84.86 0 0 0 1.8 14.2c.4 1.9 3.3 1.1 2.9-.8-1-4.4-1.6-8.9-1.7-13.4-.1-1.9-3.1-1.9-3 0h0z"/><path d="M293.3 333.2l6.6-.9c1.7 0 1.7-.2 2 1.5.2 1 .1 2.3.1 3.4s.9 5.9.3 6.8c-.9 1.2-4.8.5-6.1.5-1.9 0-1.9 3 0 3 2.3 0 6.7.9 8.4-1.1s.5-6.7.4-9.1c-.1-2.1.6-6.2-1.5-7.6-1.1-.7-2.4-.4-3.6-.3l-6.6.9c-1.9.1-2 3.2 0 2.9h0zm20.2 7.2c1.8-2.7 2.5-5.7 2.2-8.9-.2-1.9-2.9-2-3 0l-.7 16.7c-.1 1.9 2.9 1.9 3 0l.7-16.7h-3c.3 2.8-.3 5.1-1.8 7.4-1 1.6 1.6 3.1 2.6 1.5h0zm10.9.2c1.4-3.8 1.7-7.5.8-11.5-.4-1.7-3-1.3-2.9.4.1 7 .4 13.9 1.1 20.9.2 1.9 3.2 1.9 3 0-.6-6.9-1-13.9-1.1-20.9-1 .1-2 .3-2.9.4.7 3.5.4 6.6-.8 9.9-.8 1.8 2.1 2.6 2.8.8h0zm9.1-10.3c-.7 5.4-.7 10.7.2 16.1.3 1.9 3.2 1.1 2.9-.8-.8-4.8-.8-9.7-.2-14.5.2-1.8-2.7-2.7-2.9-.8h0z"/><path d="M334.6 333.8c1.3.1 4-.2 5.1.4 1.7.9 1.5 3.3 1.6 4.9.2 3.3-.6 7-4.2 8.1-1.9.5-1.1 3.4.8 2.9 5.1-1.5 6.8-6.7 6.4-11.5-.2-2-.1-5-1.7-6.4-1.9-1.6-5.7-1.1-8-1.3-2-.2-2 2.8 0 2.9h0zm18.1 1.3c0-1.6.3-3 .8-4.4l-2.9-.4-1 17.9c-.1 1.9 2.9 1.9 3 0l1-17.9c.1-1.8-2.4-1.9-2.9-.4-.7 1.8-.9 3.3-.9 5.2-.1 2 2.9 2 2.9 0h0zm16.4 4c1.2-3.2 1.6-6.4 1.3-9.8-.2-1.9-2.9-2-3 0l-.9 15.2c-.1 1.9 2.9 1.9 3 0l.9-15.2h-3c.4 3.1 0 6-1.2 9-.7 1.8 2.2 2.6 2.9.8h0zm264-149.2c7 8.6 12 18.3 15 28.9.5 1.9 3.4 1.1 2.9-.8-3.2-11.1-8.5-21.3-15.8-30.2-1.2-1.5-3.3.6-2.1 2.1h0zm12.9-9c5.7 9.3 9.8 19.4 12.4 30 .4 1.9 3.3 1.1 2.9-.8-2.6-10.9-6.8-21.2-12.7-30.7-1-1.7-3.6-.2-2.6 1.5h0z"/><path d="M628.9 209.3a236.42 236.42 0 0 1 39.4-21.8c1.8-.8.2-3.4-1.5-2.6a236.42 236.42 0 0 0-39.4 21.8c-1.5 1.1 0 3.7 1.5 2.6h0zm3.3 7.8c11.8-8 23.9-15.3 36.5-21.9 1.7-.9.2-3.5-1.5-2.6-12.6 6.7-24.7 14-36.5 21.9-1.6 1.1-.1 3.7 1.5 2.6h0zm643.4 19.6c-14.8-9.6-22.1 13.1-27.8 22.3-4.6 7.5-10.9 15-19.7 17.7-8.2 2.5-17.7-.5-21.3-8.7-.8-1.8-3.4-.2-2.6 1.5 5.8 13.3 22.6 13.3 33.1 5.9 6.4-4.6 11-11.1 14.9-17.9 4.3-7.5 10.4-25.7 21.9-18.2 1.6 1.1 3.1-1.5 1.5-2.6h0z"/><path d="M1203.1 269.8c-2.2 7-2.5 14.6 5.6 17.6 7.6 2.9 17.5 1.3 25-1.2s14.4-6.9 19.2-13.2c2.6-3.4 3.8-7.1 5.4-11 1.9-4.6 12.5-18.3 18.6-12.1 1.3 1.4 3.5-.7 2.1-2.1-5.3-5.4-12-.3-16.6 3.5-7.2 6.1-7.7 15.6-14 22.4-5.8 6.3-14.1 10-22.4 11.5-4.4.8-9.5 1.2-13.9.2-3-.7-6.2-2.1-7.3-5.2-1.1-3 .2-6.6 1.1-9.5.7-1.9-2.2-2.7-2.8-.9h0z"/><path d="M1274.1 239.4c2.3 2.5 2.8 6.2 1.2 9.2-.9 1.7 1.7 3.2 2.6 1.5 2.2-4.3 1.6-9.3-1.6-12.9-1.4-1.4-3.5.8-2.2 2.2h0zm-79.6 35.5l-8.3 6.7c-1.5 1.2.6 3.3 2.1 2.1l8.3-6.7c1.5-1.2-.6-3.3-2.1-2.1h0zm-13.7-8.6l9 4.5c1.7.9 3.2-1.7 1.5-2.6l-9-4.5c-1.7-.8-3.2 1.8-1.5 2.6h0zm10.4-12.5l5 5c1.4 1.4 3.5-.8 2.1-2.1l-5-5c-1.3-1.4-3.4.7-2.1 2.1h0zm85 2.7c-4.2 3.7-12.4 11.6-11.6 17.9.7 5.5 8.9 9.7 13 12.3 7.4 4.6 15 9.7 13.8 19.6-1.1 9.5-8.7 21-17.8 24.4-1.8.7-1 3.6.8 2.9 12.8-4.8 25.4-24.6 18-37.9-3.3-5.8-9.5-9.1-15-12.6-4-2.6-10.3-5.9-9.3-11.6.9-4.7 6.7-9.9 10.1-12.9 1.5-1.3-.6-3.4-2-2.1h0zm8.1.2c-5.6 3.2-6.1 10-3.1 15.3 4.2 7.5 12.8 11.8 19.5 16.7 4.8 3.5 10.5 7.7 10.2 14.3-.2 4.9-2.7 10.2-4.9 14.4-4.5 8.3-11.2 15.2-20.6 17.5-1.9.5-1.1 3.4.8 2.9 14.5-3.5 26.2-19.3 27.6-34 .8-8.4-6.1-13.8-12.3-18.2-4.1-3-8.5-5.6-12.3-9-4.5-4-11.2-12.8-3.4-17.3 1.7-1 .2-3.6-1.5-2.6h0z"/><path d="M1274.8 333c4.1 4.8 11.3 5.9 16.7 2.8 1.7-1 .2-3.6-1.5-2.6-4.4 2.6-9.8 1.5-13.1-2.3-1.2-1.4-3.4.7-2.1 2.1h0zm-21.4-107v15c0 1.9 3 1.9 3 0v-15c0-1.9-3-1.9-3 0h0zm3.4-2.8c17.1-2.4 33.8-5.7 51-2.8 3.6.6 7.3 1.2 10.9 2.1 2.7.7 2.1.7 1.8 3.5l-.6 6.6-2.3 24.5c-.2 1.9 2.8 1.9 3 0l2.9-30.1c.2-2.4 1.1-5-1-6.6-2.4-1.8-8.1-1.8-11-2.4-8.9-1.6-17.7-2.4-26.7-1.5-9.6.9-19.1 2.6-28.7 3.9-2 .1-1.2 3 .7 2.8h0zm19.7 36.5c4.5-6.7 10.9-15.2 20.2-11.9 1.8.6 2.6-2.3.8-2.9-10.6-3.7-18.3 5.5-23.6 13.3-1.1 1.5 1.5 3 2.6 1.5h0z"/><path d="M1282.8 259.1c12-2.4 24.1-4.1 36.3-4.9 1.9-.1 1.9-3.1 0-3-12.5.8-24.9 2.5-37.1 5-1.9.4-1.1 3.3.8 2.9h0zm-21-5.9l-.8 4.8c-.2 1 .4 1.8 1.4 1.9 4.1.4 8.1.3 12.1-.5 1.9-.3 1.1-3.2-.8-2.9-3.8.7-7.5.8-11.3.4a23.07 23.07 0 0 1 1.4 1.9c.3-1.6.5-3.2.8-4.8.4-1.9-2.5-2.7-2.8-.8h0zm9.9 80.9l-7.5 3.3c-1.8.8-.2 3.4 1.5 2.6l7.5-3.3c1.8-.8.2-3.4-1.5-2.6h0zm1.8 5.2c-3.1 2.1-5.3 5.3-5.9 9-.3 1.9 2.6 2.7 2.9.8.5-3 2.1-5.5 4.5-7.2 1.6-1.1.1-3.7-1.5-2.6h0zm5.3 5.2c.1 2.2-.3 4.3-1.1 6.3-.7 1.8 2.2 2.6 2.9.8.9-2.3 1.3-4.7 1.2-7.1 0-1.9-3-1.9-3 0h0zm-79.9 677.2c-.6 0-1.2-.1-1.7-.1.5.4 1 .7 1.4 1.1-.3-1.7 3.4-4 4.7-4.6a37.89 37.89 0 0 1 4.2-1.8c2.3-.9 4.8-1.5 7.2-2 3.1-.6 6.4-.9 9.6-.8 1.1 0 2.2.1 3.3.2l2.9.4c1.7-.1 2 .8 1.1 2.6-.3 2.7-.3 2.5-2.3 3.5-1.6.8-3.4 1.6-5.1 2.1a37.02 37.02 0 0 1-8 1.8c-6 .7-12 0-17.7-1.9-1.8-.6-2.6 2.3-.8 2.9 8.9 2.9 18.5 3.1 27.4.1 4-1.4 16.1-6.6 10-12.5-2.3-2.2-6.9-2.1-9.9-2.2-4.6-.2-9.2.3-13.7 1.4-5.3 1.3-17 4.3-15.8 11.6.1.7.8 1.1 1.4 1.1s1.2.1 1.7.1c2 .2 2-2.8.1-3h0zm44.4-19.5c3.4-3.3 8.3-4.6 12.9-3 4.4 1.5-1.7 3.7-3.6 3.7-2.5.1-4.7-.8-6.7-2.3-1.5-1.2-3 1.4-1.5 2.6 3.3 2.5 7.6 3.3 11.5 2.2 2.4-.7 6.7-2.8 5.3-6-1.3-3.2-6.6-4-9.5-3.9-4 .1-7.7 1.8-10.6 4.6-1.4 1.3.8 3.4 2.2 2.1h0zm-91.4 32.3c2.1-4.3 9.2-2.9 12.7-2 1.3.3 3.6.7 4.7 1.6 2.9 2.1 0 2.8-1.9 3.6-5.4 2.2-11.6.6-15.4-3.8-1.3-1.5-3.4.7-2.1 2.1 3.2 3.7 7.8 5.8 12.7 5.7 3.5-.1 10.3-1.7 11.7-5.5 1.7-4.7-7.9-6.3-10.6-6.9-4.8-1-12-1.3-14.5 3.8-.8 1.6 1.8 3.1 2.7 1.4h0zm-6.3-50c6.5-1.8 13.1-3.2 19.8-4.2 3.3-.5 6.7-1 10-1.1 1.3 0 5.2-.2 6.1.6.3 1 .5 2 .8 3-.7.5-1.4.8-2.2 1-4.8 1.8-10.1 1.3-15 2.2-2.7.5-5.4 1.3-8.1 1.9-1.9.4-3.9.7-5.8.7l-2.5-.3c-1.8-.2-3.1-1.1-4-2.6 1.9-.1 1.9-3.1 0-3-2.3.1-4.3 1.6-3.4 4.2 1.1 3 5.8 4.3 8.5 4.7 5.6.6 10.8-1.7 16.2-2.6 4.8-.8 9.9-.4 14.6-2 2.4-.8 6.4-2.6 6.9-5.4.6-3.5-4.3-4.6-6.8-5-5.2-.9-10.7.1-15.9.8-6.7 1-13.3 2.5-19.8 4.2-2.1.5-1.3 3.4.6 2.9h0zm89.1-446.5c.5 15.2 2 30.4 4.5 45.4.3 1.9 3.2 1.1 2.9-.8-2.5-14.8-3.9-29.6-4.4-44.6 0-1.9-3-1.9-3 0h0z"/><path d="M1237.8 539.6l64.3-4.4 15.8-1.1c3.1-.2 6.1-.6 7.6 2.8 1.1 2.4.9 6.4 1.1 9 1.1 10.7 1.4 21.4 1 32.1-.1 1.9 2.9 1.9 3 0 .4-12.4 0-24.7-1.6-37-.4-3.2-.3-7.4-3.3-9.3-3.4-2.1-9.1-.5-12.8-.3l-75.2 5.1c-1.8.2-1.8 3.2.1 3.1h0zm3.7 46.5l80.2-1.4c1.9 0 1.9-3 0-3l-80.2 1.4c-1.9 0-1.9 3 0 3h0z"/><path d="M1275.3 585.8l1 15.5c.1 2.1-.3 5.5 1.6 7.1 2.4 1.9 7.6 1 10.4 1 5.4.1 10.8.1 16.3-.1 20.2-.5 40.4-2.8 60.2-6.7 1.9-.4 1.1-3.3-.8-2.9-17.4 3.4-35 5.5-52.7 6.3-8.3.4-16.6.4-24.9.2-1.7 0-5 .5-6.3-.7-1.2-1.2-.8-4.6-.9-6.3l-.9-13.5c-.1-1.9-3.1-1.9-3 .1h0zm56.4-22.2c4.1-.2 8.2-.2 12.3.2 6 .6 13.2.9 14.2 8.2 1.1 8.3 1.8 16.6 2.2 24.9.1 1.9 3.1 1.9 3 0-.3-6.1-.8-12.2-1.4-18.2-.4-3.9-.1-10.3-2.7-13.5-2.2-2.8-7-3.1-10.2-3.7-5.8-1-11.5-1.2-17.4-.9-1.9.1-1.9 3.1 0 3h0zm-87-19.2c-.4-.2-.4 0 .2.7 0-.1 0-.2.1-.2.2-.1-1.2-1.1-.8-.1.2.5 1.2.4 1.6.6.9.4 1.8 1.5 1.7 2.5-.2 1.7-3 .9-2.5-.4.7-1.8-2.2-2.6-2.9-.8-1.5 3.8 4.1 6.7 7 4.4 1.6-1.3 1.8-3.6 1-5.4-.9-2-2.7-3.2-4.8-3.4.4.1.7.3 1.1.4-3-2.4-6.2 3-3 4.3 1.5.7 3.1-1.8 1.3-2.6h0zm3.3 32.3c-.3-1.3 1.4-2 2.1-.9.3.4.4 1-.2 1-.7 0-1.4-1-1.8-1.4-1.3-1.5-3.4.7-2.1 2.1 1.2 1.4 3.2 2.8 5.2 2.1 2.2-.8 2.6-3.6 1.5-5.3s-3.2-2.6-5.1-1.7c-1.9.8-2.9 2.9-2.5 4.9.4 1.9 3.3 1.1 2.9-.8h0zm67.7-34.5c-.7-.8.2-2 1.2-1.7 1.2.4 1 2.1-.2 2.2-1.9.2-1.9 3.2 0 3 2.1-.2 3.8-1.7 4-3.8.2-1.9-1-3.6-2.8-4.2-4.1-1.4-6.9 3.6-4.3 6.7.5.6 1.6.5 2.1 0 .6-.7.5-1.6 0-2.2h0zm32.7 32.5c-.1-1.2 2.3-.7 2.9-.1.3.3.8.9.2.9-.7 0-1.6-1-2.1-1.4-1.3-1.4-3.5.7-2.1 2.1s3.6 3 5.6 2c2-.9 2.3-3.3 1.1-5-1.1-1.7-3.1-2.5-5.1-2.2-1.9.3-3.7 1.6-3.6 3.7.2 1.9 3.2 1.9 3.1 0h0zm-90.3-16l55.3-4.9c1.9-.2 1.9-3.2 0-3l-55.3 4.9c-1.9.2-1.9 3.2 0 3h0zm8.4 7.2a733.09 733.09 0 0 1 29.8-1.8c1.9-.1 1.9-3.1 0-3a496.17 496.17 0 0 0-29.8 1.8c-1.9.1-1.9 3.1 0 3h0zm-4.3 9.8c12.4-1.7 24.8-3 37.2-3.8 1.9-.1 1.9-3.1 0-3a484.18 484.18 0 0 0-38 3.9c-1.9.3-1 3.2.8 2.9h0zm23.9 19.4c3.3 1.4 6.5.7 10 .8 4.3.1 8.7.5 13 .5 9.5.1 19-.8 28.5-1.7 1.9-.2 1.9-3.2 0-3-8.2.8-16.4 1.6-24.7 1.7a105.89 105.89 0 0 1-11.3-.3c-4-.2-10.3 1-13.9-.6-1.9-.7-3.4 1.9-1.6 2.6h0zm46.4-6.8c4.8.3 9.6.2 14.4-.1 1.9-.2 1.9-3.2 0-3-4.8.4-9.6.4-14.4.1-1.9-.1-1.9 2.9 0 3h0zM455.7 643l1.4 59.6c0 1.9 3 1.9 3 0l-1.4-59.6c-.1-1.9-3.1-1.9-3 0h0z"/><path d="M458.5 643.4c20.2-2.3 40.6-2.3 60.9-2 20.4.3 40.7 1.2 61 2.5l-1.5-1.5-.2 57.3c0 1.9 3 1.9 3 0l.2-57.3c0-.9-.7-1.4-1.5-1.5-20.3-1.4-40.6-2.2-61-2.5-20.3-.3-40.7-.3-60.9 2-1.9.2-1.9 3.3 0 3h0zm3.9 63.9l114-.7c1.9 0 1.9-3 0-3l-114 .7c-2 .1-2 3.1 0 3h0zm3.9-56.6c-.5-.4.4-1.8 1.2-1.2.4.3.7 1.1.5 1.6-.1.2-.5.6-.8.5-.1 0 .1-.2 0-.1 1-1.7-1.6-3.2-2.6-1.5-1.5 2.6 1.2 5.3 3.9 4.4 2.6-.9 3.3-4.1 1.9-6.2-1.3-2-4.2-2.6-5.9-.8-1.6 1.7-1.5 4.4.4 5.9.6.5 1.7.1 2.1-.5.3-.8-.1-1.6-.7-2.1h0zm3.7 42.5c-1.5-1.3.5-3.9 2.1-2.4 2 1.8-.6 4.4-2.7 3.5-1.7-.8-3.3 1.8-1.5 2.6 2.3 1.1 5.2.6 6.9-1.4 1.8-2.1 1.3-5.2-.8-7-2-1.7-5-1.5-6.5.6-1.3 1.8-1.3 4.6.4 6.2 1.4 1.3 3.5-.8 2.1-2.1h0z"/><path d="M503.8 621v15.4c0 1.9 3 1.9 3 0V621c0-2-3-2-3 0h0zm3.7-4.7l140.1-1.7-1.5-1.5a1034.53 1034.53 0 0 0-.6 55.7c0 1.9 3 1.9 3 0-.3-18.6-.1-37.2.6-55.7a1.54 1.54 0 0 0-1.5-1.5l-140.1 1.7c-1.9.1-1.9 3.1 0 3h0zm73.3 61.9c21.4-2.6 42.3-1.9 63.8-.4 1.9.1 1.9-2.9 0-3-21.4-1.5-42.4-2.2-63.8.4-1.8.2-1.9 3.2 0 3h0zm53.3-12.3c-1.3-1.3 1.1-3.8 2.3-1.7 1.2 2.2-2.1 3.1-3.1 1.3-.9-1.7-3.5-.2-2.6 1.5 1.2 2.3 4.3 3.1 6.6 1.9 2.4-1.2 2.9-4.3 1.5-6.5s-4.4-2.9-6.5-1.1c-1.9 1.7-2.2 4.8-.4 6.6 1.4 1.5 3.5-.6 2.2-2h0zm4.6-39.4c-.2-1.1-.7-2.9.2-3.7 1.1-1 1.4.6 1.5 1.5s0 2.3-1 2.8c-.4.2-1.6.1-1.6-.5 0-1.9-3-1.9-3 0 .1 2.5 2.6 4.1 5 3.5 2.7-.6 3.8-3.7 3.5-6.2-.3-2.7-2-5.3-5-4.2-3.2 1.2-3.1 4.8-2.5 7.6.4 1.9 3.3 1.1 2.9-.8h0zM1167 737v70.7c0 1.9 3 1.9 3 0V737c0-1.9-3-1.9-3 0h0z"/><path d="M1168.5 738h147c1.9 0 1.9-3 0-3h-147c-2 0-2 3 0 3h0z"/><path d="M1313.5 735v72.7c0 1.9 3 1.9 3 0V735c0-2-3-2-3 0h0zm-127.6 22.4v45.8c0 7.7 12 7.7 12 0v-45.8c0-7.8-12-7.8-12 0h0zm33 .5v47.3c0 7.7 12 7.7 12 0v-47.3c0-7.8-12-7.8-12 0h0zm34.1-3.1v49.3c0 7.7 12 7.7 12 0v-49.3c0-7.7-12-7.7-12 0h0zm30.5-.5v49.8c0 7.7 12 7.7 12 0v-49.8c0-7.7-12-7.7-12 0h0zm-106.9-8.6c-.2-.8.9-.9 1.4-.7.7.3 1.2 1.1 1.3 1.9.1.5 0 1.4-.5 1.7-.3.2-1 .1-.9-.4.5-1.9-2.4-2.7-2.9-.8-.6 2.3 1.4 4.3 3.6 4.3 2.4 0 3.9-2.6 3.7-4.8-.2-2.4-1.9-4.7-4.4-5-2.6-.3-4.7 2.1-4.2 4.6.5 1.9 3.3 1.1 2.9-.8h0z"/><path d="M1305.2 744.3l-1.2-.3c.3.2.6.5.9.7.2.4-.1.2.1.1-.1.1.4-.3.3-.3.3-.2.4-.2.6 0 .6.6-.1 1.6-.5 2h2.1l-1.5-1.5c-1.4-1.3-3.5.8-2.1 2.1l1.5 1.5c.6.6 1.5.5 2.1 0 2.3-1.9 2.1-6.8-1.4-7.2-1.5-.2-3 .6-3.7 1.9-.4.7-.5 1.5-.3 2.2.3 1.2 1.3 1.4 2.4 1.6 1.8.5 2.6-2.4.7-2.8h0zm-134.5 64.2h144.4c1.9 0 1.9-3 0-3h-144.4c-2 0-2 3 0 3h0zm-403.4 254.7c60.6-4.8 121.4-6.5 182.2-5 1.9 0 1.9-3 0-3-60.8-1.5-121.6.1-182.2 5-1.9.2-1.9 3.2 0 3h0zm90.3-24.3l91.9-1.3c1.9 0 1.9-3 0-3l-91.9 1.3c-2 .1-2 3.1 0 3h0z"/></g><g class="Q"><path d="M771 261c12.4-10.3 30-12.3 44.4-5.2 1.7.8 3.2-1.7 1.5-2.6-15.7-7.7-34.6-5.5-48.1 5.7-1.4 1.2.7 3.4 2.2 2.1h0zm22.4-47.2c9.6.9 18 6.3 22.8 14.7 1 1.7 3.6.2 2.6-1.5-5.3-9.4-14.6-15.2-25.3-16.2-2-.2-2 2.8-.1 3h0zm41.5 4.4c-13.5-30.8-16.4-65.4-8.3-98.1.5-1.9-2.4-2.7-2.9-.8-8.3 33.5-5.2 68.8 8.6 100.4.8 1.8 3.4.3 2.6-1.5h0zm306.8-171.3c-7.2 11.6-13.3 23.8-18.3 36.5-.4.9.6 1.9 1.4 1.9 7.8 0 15.1 2.5 21.3 7.3.8.6 2.3.6 2.5-.7 2.2-13.5 8.9-25.5 19.3-34.5 1.5-1.3-.7-3.4-2.1-2.1-10.7 9.3-17.7 21.8-20 35.8.8-.2 1.7-.4 2.5-.7-6.9-5.3-14.7-8.1-23.4-8.2a23.07 23.07 0 0 1 1.4 1.9c5-12.5 11-24.4 18-35.8 1-1.6-1.6-3.1-2.6-1.4h0z"/><path d="M1143.9 46.2c9.6-.1 18.2 4.9 22.9 13.3.9 1.7 3.5.2 2.6-1.5-5.2-9.3-14.8-14.9-25.5-14.8-2 .1-2 3.1 0 3h0zm36.3 88.3c.1 0 .3-.1.4-.1l-1.8-1c.1-.1.2-.3.3-.4.6-.1 1.2-.2 1.8-.2-1.3-.7-1.6-5.1-1.7-5.9-.2-4.4 1.5-7.3 6.5-7.2 1.6 0 2.5.7 4.1-.2s1.8-2.7 2.2-4.3c.7-2.9 1.2-5.5 2.6-8.2 5.2-10.7 16.2-17.9 28.1-18.1 1.9 0 1.9-3 0-3-13.8.3-26.5 9-31.7 21.8-.7 1.7-1.2 3.5-1.6 5.3-.7 3.1-1.3 3.3-4.5 3.4-2.4.1-4.3.4-6.1 2.3-3.4 3.5-4.3 14 .5 16.6.5.3 1.4.3 1.8-.2.1-.1.2-.3.4-.4.3-.4.6-.9.4-1.5-.1-.2-.2-.4-.2-.6-.3-.8-1-1.3-1.8-1-.1 0-.3.1-.4.1-2 .4-1.2 3.3.7 2.8h0zm17-9.7c1.3-10.7 11.7-18.9 22.5-17.4 1.9.3 2.7-2.6.8-2.9-12.8-1.7-24.7 7.5-26.2 20.3-.3 1.9 2.7 1.9 2.9 0h0zm-577 432.6c4.7-4.3 9.1-8.9 13-14 1.2-1.5-.9-3.6-2.1-2.1-3.9 5.1-8.2 9.7-13 14-1.4 1.3.7 3.4 2.1 2.1h0z"/><path d="M618 555.9h-.2l1.8 1-.3 1.1c-.6.1-1.2.2-1.8.2-.4-.7-.3-.3.2 1.2l.7 2.8 3.3 14.2c.4 1.9 3.3 1.1 2.9-.8l-3-12.8c-.5-2.1-.5-6-2.6-7.2-.6-.3-1.4-.3-1.8.2-.5.6-.7 1.1-.5 1.9.3.8 1 1.2 1.8 1h.2c2-.2 1.2-3.1-.7-2.8h0zm6.8 23.8l21.6 15.3c1.6 1.1 3.1-1.5 1.5-2.6l-21.6-15.3c-1.6-1.2-3.1 1.4-1.5 2.6h0z"/><path d="M647.5 595.2c6.8-1.3 13.6-2.1 20.5-2.4 1.9-.1 1.9-3.1 0-3-7.2.4-14.2 1.2-21.3 2.5-1.9.4-1.1 3.3.8 2.9h0z"/><path d="M670.8 590.9c3.6-3.2 6.8-6.8 9.6-10.8 1.1-1.6-1.5-3.1-2.6-1.5-2.6 3.8-5.7 7.2-9.1 10.2-1.5 1.3.7 3.4 2.1 2.1h0zm-37.4-46.5c9.6-3 17.9-.5 26.7 3.6 8 3.7 16.1 9.1 17.2 18.6.2 1.9 3.2 1.9 3 0-1.2-9.9-8.6-16.2-17.1-20.4-9.9-4.9-19.7-8.1-30.6-4.7-1.9.6-1.1 3.5.8 2.9h0z"/><path d="M678.3 567.8c-.4 3.9-1.3 7.7-2.9 11.3-.7 1.8 1.8 3.3 2.6 1.5a46.39 46.39 0 0 0 3.3-12.8c.2-2-2.8-2-3 0h0zm-52.4 9l8.2-14.9c.9-1.7-1.7-3.2-2.6-1.5l-8.2 14.9c-.9 1.7 1.7 3.2 2.6 1.5h0zm24.5 15.7l3.7-10c.7-1.8-2.2-2.6-2.9-.8l-3.7 10c-.7 1.8 2.2 2.5 2.9.8h0zm19.6-2.2c.3-3 .9-6 1.8-8.9.6-1.8-2.3-2.6-2.9-.8-1 3.2-1.6 6.4-1.9 9.7-.2 1.9 2.8 1.9 3 0h0zM638.6 546c-9.6 4.3-4.2 15.6 1.5 20.6 7.3 6.5 17.7 8.9 25.8 2.3 1.5-1.2-.6-3.3-2.1-2.1-6 4.9-14 3.4-19.8-1-4.6-3.5-12.5-13.4-3.8-17.3 1.7-.7.2-3.3-1.6-2.5h0z"/><path d="M640.3 548.8c9.3-2.1 27.6 4.6 23.5 16.9-.6 1.8 2.3 2.6 2.9.8 5-14.7-15.7-23.1-27.1-20.6-1.9.4-1.1 3.3.7 2.9h0z"/><path d="M638.1 553.4c.2-.7.5-1.4.7-2h-2.6c1.3 2 1.4 4.1.5 6.3h2.9c-1-3.2-1.2-6-.7-9.2l-2.2.9c3.9 1.9 2.9 11.2 2.7 14.8 1-.1 2-.3 2.9-.4-1.7-4.3-3.4-8.9-.9-13.2-.9-.1-1.8-.2-2.7-.4 1.1 4.6 1.5 9 1.1 13.7 1-.1 2-.3 2.9-.4-.5-1.9-3.2-12.6-.5-13.7-.6-.3-1.2-.7-1.8-1 1.4 5 1.7 9.8 1.1 15 1-.1 2-.3 2.9-.4-.9-4.7-1-9.2-.2-14-.7.3-1.5.6-2.2.9 4 2 2.4 13.1 2.1 16.9.9-.3 1.9-.5 2.8-.8-1.3-2.7-2.1-5.5-2.2-8.6 0-1 .2-5.3.9-5.2.7.2 1 5.6 1 6.3.1 2.7-.3 5.3-1.1 8 .9-.1 1.8-.2 2.7-.4-1.2-2.3-2.1-4.8-2.3-7.4-.1-1.3-.1-2.5.1-3.8.5-2.7.9-3.2 1.1-1.5 2.2 1.8.8 12.4.4 14.7h2.9c-.6-1.7-4.3-14.3-2.5-15 3.2-1.1 1.6 15.1 1.3 16.4h2.9c-1.3-3.3-2.3-6.5-2.5-10.1 0-.6-.6-3.7-.1-4.2 2.5-2.4 3 1.8 3.3 3.1.3 1.4 1.2 4.8.6 6.2-.8 1.9-.9.7-1.5-.7-.8-1.7-.6-3.1.7-4.3.8-1.8 1.2-1.8 1.3-.1 1.2 1.7.3 5.6-.7 6.9h2.1c-2.5-2-2.1-4 1.2-6 .5 2.1.3 4.2-.6 6.1-1.2.2-3.7-5.9-3.8-6.3-1.3-2.5-.8-3.2 1.5-2 1.7-.2 2.5.5 2.6 2.1 1.2 2 1.3 5.7 1.5 7.8.8-.4 1.5-.9 2.3-1.3-4.7-2.6-8.8-5.9-11.9-10.3-.4-.5-1.6-1.9-1.6-2.5.7-1.1 1.4-2.3 2.2-3.4.6.5 1.3 1 1.9 1.5 2.4 2.2 3.8 5.2 4.5 8.3.7-.6 1.5-1.1 2.2-1.7-2.9-1.4-7.4-3.8-8.5-7-1.2-1-1-1.7.4-2.1 1-1.3 2-1.1 3.1.5 1.2 1.1 2.2 2.6 3 4.1.7 1.3 4.3 8.1 1.8 8.6-1.2.2-3.9-4.1-4.3-5-.5-.9-3.2-8 2.3-5.8 1.9.8 5.3 9.3 4 11.1-1.9 2.6-4.2-1-5.1-2.4l-1.2-3.4c5-1.9 7.4-.9 7.2 3 .2 1.9 1.4 6.2-3.2 3.1-2.4-1.6-1.2-3.7.3-5.3 1.7-3.1 3.1-2.7 4.2 1.2a16.21 16.21 0 0 1 0 4.4c.3 1.4-.3 2-1.8 1.8-1.7-1.2-2.1-3-1.3-5.3 1.5-1.2 0-3.8-1.5-2.6-5.1 3.9.8 14.8 5.7 11.5 2.6-1.8 2.4-7.8 1.8-10.6-.8-3.4-4-6.6-7.7-5.9-7.6 1.4-4.3 13.5 1 15.7 8.7 3.6 5.9-13 2.2-16.2-2.7-2.3-6.4-2.2-8.6.7-2.5 3.4-1.1 7.6 1.3 10.7 1.6 2 4.3 5.5 7.3 4.6 3.7-1.2 2.6-7.1 1.9-9.9-1-4.2-8.4-16-12.3-7.3-2.1 4.7 4.8 18.9 10.9 14.9 3.2-2.1.1-8.2-.9-10.6-1.7-4.1-4.9-9.4-9.8-10.1-3.4-.5-5.9 1.6-4.7 5.1 1.7 5 6.6 8.9 11.2 11 1.2.5 2.5-.4 2.2-1.7-1-4.2-3.1-8.3-6.7-10.9-2.5-1.8-6.3-2.7-8.1.5-2 3.4 1.4 7.7 3.4 10.2 3.2 4.2 7.3 7.5 11.9 10 .9.5 2.4-.1 2.3-1.3-.3-3.6-3-20.1-10.3-14.7-4.6 3.4.5 16.3 5.7 16.4 5.5.1 4.4-12.4.4-14.3-2.7-1.2-5.5.7-6.6 3.2-1.5 3.6 1.1 7.1 3.2 9.8.5.6 1.7.6 2.1 0 2.5-3.1 2.4-6.7 1.4-10.4-.7-2.6-2.5-5.3-5.5-3.7-4.7 2.3-2.7 18.7 2.8 17.1 3.5-1 2.5-7.3 2.3-9.7-.3-3.5-.7-8.5-4.1-10.7-9.3-6-4.2 16.5-3 19.3.5 1.2 2.6 1.6 2.9 0 1-5.1 1.2-10.2.3-15.3-.4-2.2-1.2-6.9-4.4-7-6.9-.3-1.5 17.9-.5 20.9.4 1.2 2.7 1.6 2.9 0 .4-3 2.5-20.6-3.8-19.4-7.1 1.3-2.8 14.7-1.1 18.2.6 1.2 2.4.8 2.7-.4.8-3 3.3-19.6-3.4-18.3-6.6 1.3-2.5 15-.8 18.5.7 1.5 2.7.6 2.8-.8.4-5 2-16.7-3.6-19.5-.8-.4-2-.1-2.2.9-.9 5.3-.9 10.3.2 15.6.4 1.8 2.8 1.1 2.9-.4.6-5.4.2-10.5-1.2-15.8-.2-.7-1.1-1.4-1.8-1-5.7 2.3-2.8 12.9-1.6 17.4.4 1.7 2.8 1.2 2.9-.4a50.54 50.54 0 0 0-1.2-14.5c-.3-1.3-2.1-1.5-2.7-.4-2.9 5.1-1.5 10.4.6 15.5.6 1.5 2.8 1.4 2.9-.4.3-4.8 1.2-14.7-4.1-17.4-.8-.4-2-.1-2.2.9-.6 3.8-.4 7.2.7 10.8.5 1.5 2.4 1.3 2.9 0 1.2-3.1.9-5.9-.8-8.7-.6-.9-2-1-2.6 0-.8 1.5-.9 1.8-1.1 3.5-.1 2.2 2.9 2.2 3.1.3h0zm52.4-123.7c-1.4 1.1-6.2-4.2-6.8-5.2-1.5-2.2-2.5-4.8-2.4-7.5.1-6.4 6.5-12.1 12.9-10 5.2 1.8 8 7.7 7.5 13-.6 6.2-6.9 10.8-12.7 7.5-1.7-1-3.2 1.6-1.5 2.6 7 4 15.3-.5 17-8.1 1.8-7.9-3.5-17.7-12.1-18.4-8.2-.7-14.8 7.3-13.9 15.1.5 4.8 8.2 18 14.3 13.1 1.3-1.2-.8-3.3-2.3-2.1h0z"/><path d="M690.4 418.7c-3.3-1.9-.8-6.9 2.7-4.9 1.8 1 1.7 3.6.9 5.2-.4.8-1 1.7-2 1.9-.8.1-2.1-.4-1.9-1.4.4-1.9-2.5-2.7-2.9-.8-.7 3.8 3.6 6.5 6.9 4.6 3.4-2 4.5-7.6 2.1-10.7-2.2-2.8-6.7-2.9-9-.3-2.4 2.8-1.3 7.3 1.8 9 1.6 1 3.1-1.6 1.4-2.6h0zm-10.2-9c-3.4 5.4-4.2 12.8.1 18 3.8 4.6 10.3 5.9 15.5 3.1 1.7-.9.2-3.5-1.5-2.6-4.1 2.2-9.6.9-12.2-3.1-2.8-4.3-1.9-9.8.7-13.9 1.1-1.7-1.5-3.2-2.6-1.5h0zM474.3 511c.8 8.5 4.6 18.3 14.1 19.9 8.2 1.4 14.6-4.1 14.3-12.3-.3-8.8-6.7-17.3-15.9-17.8-9-.5-16 7.5-13.8 16.3.5 1.9 3.4 1.1 2.9-.8-2-8 5.6-14.1 13.3-12.1 6.8 1.8 10.9 9.1 10.5 15.9s-7.4 9.6-13.2 7.2c-6.3-2.6-8.6-10-9.2-16.2-.2-2.1-3.2-2.1-3-.1h0z"/><path d="M474.2 510c-4.4 10.5-.6 22.8 9.6 28.3 3.9 2.1 8.9 3.3 12.7.1 4-3.3 4-8.8 3.6-13.6-.1-1.9-3.1-1.9-3 0 .3 3.9.7 9.4-3.2 11.8-4.1 2.5-10-1.2-12.9-4-6.1-5.8-7.2-14.3-4-21.9.9-1.7-2-2.5-2.8-.7h0z"/><path d="M473.1 519.4c1.3 6.8 5.6 12.7 11.9 15.6 4 1.9 11 3 12.5-2.6.5-1.9-2.4-2.7-2.9-.8-.8 3-5.3 1.9-7.2 1.1-2.1-.8-4-1.9-5.6-3.4-3.1-2.9-5.1-6.6-5.8-10.7-.4-1.9-3.3-1.1-2.9.8h0z"/><path d="M474.8 519.4c2.8 9.2 12.1 14.7 21.5 12.8 1.9-.4 1.1-3.3-.8-2.9-7.7 1.6-15.5-3.2-17.8-10.7-.6-1.9-3.5-1.1-2.9.8h0z"/><path d="M477.6 525.2a48.51 48.51 0 0 0 5.1 11.4c1 1.6 3.6.1 2.6-1.5-2.1-3.4-3.7-6.9-4.8-10.7-.6-1.8-3.5-1-2.9.8h0z"/><path d="M482.7 528.2c.6 2.9 1.6 6.3 3.4 8.8.7.9 1.7 1.6 2.9 1.3 1-.3 1.7-1.3 1.6-2.3-.2-1.9-3.2-1.9-3 0 .9-.4 1.1-.9.5-1.5l-.6-1.1c-.3-.6-.6-1.2-.8-1.9-.5-1.3-.9-2.7-1.1-4.1-.4-1.9-3.3-1.1-2.9.8h0z"/><path d="M487.6 531.2l1.6 5.2c.4 1.1.8 2.3 2 2.7 2.4.7 3.6-3.3 1.2-3.7-1.9-.4-2.7 2.5-.8 2.9h.2c-.3-.2-.6-.5-.9-.7 1.3-.3 1.8-.7 1.4-1.5-.1-.2-.1-.3-.2-.5l-.6-1.8-1.1-3.4c-.5-1.9-3.4-1.1-2.8.8h0z"/><path d="M490.7 531.8l1.3 5.6c.3 1.4 2.6 1.5 2.9 0l1.1-5.4-2.7.4c.4.7.4 1.6-.4 2.1h1.5c-3.5-1.9-6.7-4.2-9.5-7.1-.5.8-1 1.7-1.5 2.5 2.6.9 4.9 2.3 7 4 1.5 1.2 3.6-.9 2.1-2.1-2.5-2.1-5.3-3.6-8.3-4.7-1.5-.5-2.5 1.5-1.5 2.5 3 3 6.4 5.5 10.1 7.5.5.2 1.1.3 1.5 0 2.1-1.4 2.8-4 1.4-6.2-.6-1-2.5-1-2.7.4-.4 1.8-.7 3.6-1.1 5.4h2.9c-.4-1.9-.9-3.7-1.3-5.6-.3-2-3.2-1.2-2.8.7h0zm-7-23c-2.4 3.8.2 9.2 3.7 11.5 3.2 2 8.6 0 7.3-4.4-.5-1.9-3.4-1.1-2.9.8.3 1.1-1 1.7-1.9 1.5-1.1-.2-2-1.3-2.6-2.1-1.2-1.6-2.3-3.9-1.1-5.8 1.1-1.7-1.5-3.2-2.5-1.5h0zm750.3-43.1c.2-2.8.3-9.1 3.9-10.2 2.8-.8 6.5 1.3 8.3 3.3 3 3.3 5.2 7.1 6.6 11.3.4 1.1 2.2 1.6 2.7.4 1.1-2.4 2.4-4.5 4.3-6.5.9-.9 3.5-3.5 5.1-3.5 2.4 0 4.6 2.3 5.5 4.2 3 5.7 5.3 11.7 7.3 17.8.6 1.8 3.5 1.1 2.9-.8-1.5-4.9-3.3-9.7-5.5-14.3-1.5-3.2-3.1-8.1-6.7-9.6-6.6-2.8-13.2 6.2-15.4 11.2.9.1 1.8.2 2.7.4-2-6.1-7-15.9-14.1-17.4-8-1.7-10.2 8-10.6 13.7-.2 1.9 2.8 1.9 3 0h0zm-70.2 64.3c15.2 16.4 24.7 37.3 26.9 59.6.2 1.9 3.2 1.9 3 0-2.3-23.1-12-44.7-27.8-61.7-1.3-1.5-3.4.6-2.1 2.1h0zm77 201.8c-3 .7-5.1-3.2-4.2-5.8 1.1-3.3 5.6-3.9 8.5-3.2 3.1.7 7.2 3.4 5.4 7-1.8 3.5-6.7 3.2-10 3-1.9-.1-1.9 2.9 0 3 5.2.3 13-.5 13.6-7.2.5-5.4-5.7-8.7-10.3-9s-10.2 2.2-10.3 7.5c-.1 4.5 3.6 8.7 8.2 7.6 1.8-.5 1-3.4-.9-2.9h0zm-167.7 80.5c-4.7 23.8.2 48.6 13.7 68.8 1.1 1.6 3.7.1 2.6-1.5-13-19.5-17.9-43.4-13.4-66.5.3-1.9-2.6-2.7-2.9-.8h0zm65-444.1c7.6-7.4 17.3-11.5 27.9-11.8 1.9-.1 1.9-3.1 0-3-11.4.3-21.9 4.7-30 12.7-1.4 1.4.8 3.5 2.1 2.1h0zm2 9.2c10.1-6.6 22.2-8.1 33.6-4.1 1.8.6 2.6-2.3.8-2.9-12.1-4.2-25.2-2.6-35.9 4.4-1.6 1.1-.1 3.7 1.5 2.6h0zm-575.5-63.5c.8 3 4 4 6.8 2.8 2.7-1.1 3.9-4.3 6.7-5.2 3.8-1.3 7.8 1.5 8.6 5.2.3 1.2 2.1 1.5 2.7.4 1.5-2.9 3.3-6.4 6.4-8 4-2 7.1 1 10.7 2.1s7.2.8 9.3-2.5c1-1.6-1.5-3.1-2.6-1.5-2.9 4.6-12.1-2.8-16.8-1.5-4.7 1.2-7.5 5.9-9.6 9.9.9.1 1.8.2 2.7.4-.9-3.8-3.7-6.6-7.6-7.4-1.8-.4-3.6-.3-5.2.3s-8.5 6.8-9.2 4.3c-.6-2-3.5-1.2-2.9.7h0zm21.6-19.7c-.2-3.2 2.5-6.4 5.9-6.4 2.6.1 4.1 2.5 6.2 3.7 2.4 1.3 4.5 1.1 6.5-.8 1.8-1.7 2.3-3.2 5.2-2.9 1.4.1 2.5.8 3.9.5 2-.4 3.3-2 5-2.9 3.6-1.9 7.9-1.5 11.3.5 1.7 1 3.2-1.6 1.5-2.6-5.6-3.3-10.1-2.3-15.6.3-2.3 1.1-3.8 1.2-5.9 1.1-1.1-.1-1.8-.4-2.9-.2-1.9.4-2.2 1.6-3.6 2.7-.6 1.6-1.6 1.9-3.2 1-1.3.1-2.4-.3-3.2-1.3-.9-.5-1.6-1.3-2.6-1.6-1.7-.7-3.5-.6-5.3-.1-3.9 1.2-6.6 4.8-6.4 8.9.4 2 3.4 2 3.2.1h0zM993 1012.5v11c0 1.9 3 1.9 3 0v-11c0-1.9-3-1.9-3 0h0z"/><path d="M995.4 1010.6c1.4-3.4 2.6-6.8 3.6-10.4.5-1.9-2.4-2.7-2.9-.8a98.38 98.38 0 0 1-3.6 10.4c-.8 1.8 2.1 2.6 2.9.8h0z"/><path d="M997.9 1000.2l12.6-4.7c1.8-.7 1-3.6-.8-2.9l-12.6 4.7c-1.8.7-1 3.6.8 2.9h0z"/><path d="M1011.4 995.9l12.6 3c1.9.4 2.7-2.5.8-2.9l-12.6-3c-1.9-.4-2.7 2.4-.8 2.9h0z"/><path d="M1024.3 999.1l.8 9.4c.2 1.9 3.2 1.9 3 0l-.8-9.4c-.1-1.9-3.2-1.9-3 0h0zm-31.5 12.6c4.2 2.5 8.6 4.5 13.1 6.1 1.8.7 2.6-2.2.8-2.9-4.3-1.5-8.4-3.5-12.4-5.8-1.7-1-3.2 1.6-1.5 2.6h0z"/><path d="M1007.7 1017.4l18.1-7.9c1.8-.8.2-3.4-1.5-2.6l-18.1 7.9c-1.8.8-.3 3.4 1.5 2.6h0zm-.9-11.5c-.3 0-.4-.9-.4-1.1 0-.7.7-1.1 1.2-1.4 1.3-.6 3.3-1 4.7-.8 1.7.3 1.4 1.9.2 2.7-1.6 1-4 .1-5.6-.4-1.8-.6-2.6 2.3-.8 2.9 3.3 1 7.7 1.8 9.7-1.8 1.8-3.1-.2-6.2-3.6-6.4-2.9-.2-7.6.6-8.7 3.8-.9 2.7 1 5.7 4 5.3 2-.2 1.2-3-.7-2.8h0z"/><path d="M1006 1015.7l-.5 8.6c-.1 1.9 2.9 1.9 3 0l.5-8.6c.1-2-2.9-2-3 0h0z"/><path d="M994.8 1026.2l11.9 1.9c1.9.3 2.7-2.6.8-2.9l-11.9-1.9c-1.9-.3-2.7 2.6-.8 2.9h0z"/><path d="M1008.7 1027.4c5.4-2.3 10.6-5.1 15.5-8.3 1.6-1.1.1-3.6-1.5-2.6-4.9 3.2-10.1 6-15.5 8.3-1.8.7-.3 3.3 1.5 2.6h0z"/><path d="M1023.7 1009.3v7.9c0 1.9 3 1.9 3 0v-7.9c0-1.9-3-1.9-3 0h0zm-659.9-235c11.3 2.4 19.6 12.2 20 23.7.1 1.9 3.1 1.9 3 0-.4-12.8-9.6-23.9-22.2-26.6-1.9-.4-2.7 2.5-.8 2.9h0z"/><path d="M365.9 771.6c-.8-7.9 6.9-10.2 12.7-6.6 3.2 2 6.1 4.7 8.5 7.6 5.4 6.7 8.2 15 8.2 23.6 0 1.9 3 1.9 3 0 0-12.3-5.5-24.3-15.4-31.9-3.8-2.9-8.4-5.6-13.2-3.8-4.6 1.7-7.3 6.3-6.8 11.1.2 1.9 3.2 2 3 0h0z"/><path d="M384.1 800.3c4.1 3.4 10 3.3 13.9-.4 1.4-1.4-.7-3.5-2.1-2.1-2.6 2.5-6.8 2.8-9.6.4-1.5-1.3-3.7.8-2.2 2.1h0zm1.3 6.8c-1.9 5.3-1.4 10.9 1.3 15.9.9 1.7 3.5.2 2.6-1.5-2.3-4.3-2.6-9-1-13.5.6-1.9-2.3-2.7-2.9-.9h0zm6.4-.4c.5 4.6 2.9 8.5 6.7 11.1 1.6 1.1 3.1-1.5 1.5-2.6-2.9-2-4.8-5.1-5.2-8.5-.2-1.9-3.2-2-3 0h0zm-6.3-18.1c.3.8.7 1 1.1.5.4-.2.7-.4 1.1-.5.5-.2 1-.4 1.6-.5 1.4-.3 2.7-.2 4.1.1 1.9.4 2.7-2.5.8-2.9-3.1-.7-6.3-.3-9 1.3-1.7 1-3.3 4.3-.4 5 1.8.4 2.6-2.5.7-3h0zm-6.1-10.6a4.59 4.59 0 0 1 5.8-2.9c1.8.6 2.6-2.3.8-2.9-3.9-1.3-8.3 1.1-9.5 5-.6 1.9 2.3 2.7 2.9.8h0zm-9-7c.1-1.9 1.6-3.7 3.6-3.9 1.9-.2 1.9-3.2 0-3-3.6.3-6.4 3.2-6.6 6.9 0 1.9 3 1.9 3 0h0zm-14.9-6.5c-2.3-1.6-4-3.8-5.1-6.3-.8-1.8-3.4-.2-2.6 1.5 1.3 3 3.5 5.5 6.2 7.4 1.6 1.1 3.1-1.5 1.5-2.6h0zm5.2-4.3c-.8-4-1.1-8-1-12.1.1-1.9-2.9-1.9-3 0-.1 4.3.3 8.6 1.1 12.8.3 2 3.2 1.2 2.9-.7h0zm183.9-83c-.6 4 2.8 7.1 6.9 6.5 6.5-1 7.7-10.4 10.2-15 2.8-5.1 6.4-7.9 12.2-7.6 3.2.2 6.3.8 9-1.3 1.6-1.3 2.5-3.3 3.1-5.2.5-1.8.5-3.7.9-5.5.5-2.3 3.8-9.5 6.7-4.9 1 1.6 3.6.1 2.6-1.5-2-3.1-6-3.5-8.9-1.2-5 4-1.3 14.7-7.9 16.9-3 1-6.5-.6-9.6-.1-2.5.4-4.7 1.7-6.6 3.4-2.6 2.4-4.2 5.6-5.5 8.8-.5 1.2-.9 2.4-1.4 3.6-.4 1.2-.9 2.3-1.6 3.4-1.3 3-3.7 3.2-7.2.6.3-2-2.6-2.8-2.9-.9h0z"/><path d="M543.7 679.7c-1.7 6.7 5.5 11.4 11.5 8.8 3.6-1.6 6-5 7.5-8.5 2.2-4.8 3.3-11.7 9.4-12.6 4.4-.7 9 1.8 13.2-.4 3.5-1.8 3.2-4.9 4.2-8.3 1.4-4.9 13.4-11.6 5.7-17.2-1.6-1.1-3.1 1.5-1.5 2.6 3.9 2.8-3.1 7.3-4.5 8.9-1.5 1.7-2.2 3.4-2.6 5.6-.5 2.4-.1 4.8-3.2 6-1.7.7-4.2.3-5.9.1-2.5-.3-5.1-.8-7.6 0-3.8 1.2-5.9 4.6-7.4 8-1.1 2.5-1.9 5.1-3.1 7.6-.9 1.7-2 3.2-3.5 4.3-3 2.2-10.9 2.6-9.2-4.1.4-1.9-2.5-2.7-3-.8h0zm-4.9 2.2c-2.4 1.1-4.5 3.1-5.5 5.6-.3.7-.2 1.6.5 2.1.6.4 1.7.2 2.1-.5a8.27 8.27 0 0 1 4.5-4.5c.7-.3.9-1.4.5-2.1-.5-.9-1.3-1-2.1-.6h0zM540 692c-.5 2.3-.8 4.7-.7 7 0 1.9 3 1.9 3 0 0-2.1.2-4.2.6-6.2.4-1.9-2.5-2.7-2.9-.8h0zm63.1-60.7c-.3-1.4.8-2.9 2.2-2.9 1.9-.1 1.9-3.1 0-3-3.4.2-5.9 3.4-5.1 6.7.5 1.9 3.4 1.1 2.9-.8h0zm3.1 10.1c2.7.3 5.3.1 7.9-.8 1.8-.6 1-3.5-.8-2.9-2.3.8-4.6 1-7.1.7-1.9-.2-1.9 2.8 0 3h0zm315.4 308c-4-4 5-10.9 7.6-12.4 4.6-2.6 9.7-2.8 14.1.3 1.6 1.1 3.1-1.5 1.5-2.6-6.2-4.5-14-3-19.8 1.6-4.1 3.2-10.5 10.2-5.5 15.2 1.4 1.4 3.5-.7 2.1-2.1h0z"/><path d="M923.3 951.7c6.3-8.3 18.7-4 18.9 6.2a1.54 1.54 0 0 0 1.5 1.5c11.1-.3 18.3-10.8 14.4-21.3-.7-1.8-3.6-1-2.9.8 3.2 8.6-2.2 17.2-11.5 17.5l1.5 1.5c-.4-13.4-16.5-18.3-24.5-7.7-1.2 1.5 1.4 3 2.6 1.5h0zm21.6-16.3l23.5-22.2c1.4-1.3-.7-3.4-2.1-2.1l-23.5 22.2c-1.5 1.3.6 3.4 2.1 2.1h0z"/><path d="M957.9 939.5c7-9.6 15.3-18.1 24.7-25.4 1.5-1.2-.6-3.3-2.1-2.1-9.6 7.5-18 16.2-25.2 26-1.2 1.5 1.4 3 2.6 1.5h0zm9.6-29.3c-2.9-6.9 1.3-14.4 9-14.8 1.9-.1 1.9-3.1 0-3-9.4.6-15.5 9.8-11.8 18.6.6 1.7 3.5 1 2.8-.8h0z"/><path d="M977.5 891.9c-4.3 2.8-3.9 9.1.3 11.8 6.1 3.8 12.6-.9 16.5-5.5 1.2-1.5-.9-3.6-2.1-2.1-2.4 2.9-5.5 6-9.6 5.9-3.6 0-7.8-4.8-3.6-7.5 1.6-1.1.1-3.7-1.5-2.6h0z"/><path d="M980.9 914.8c11.6 1.9 20.1-9.8 14.4-20.2-.9-1.7-3.5-.2-2.6 1.5 4.4 7.9-2 17.3-11 15.8-1.9-.3-2.7 2.5-.8 2.9h0zm-60.6 36.7l2.3 6.7c.6 1.8 3.5 1 2.9-.8l-2.3-6.7c-.6-1.9-3.5-1.1-2.9.8h0z"/><path d="M924.8 958.3c5.6-2.7 12.1-1.4 16.4 3.1 1.3 1.4 3.5-.7 2.1-2.1-5.2-5.5-13.3-6.8-20-3.5-1.8.8-.2 3.4 1.5 2.5h0z"/><path d="M942.4 959l1.1 7.5c.3 1.9 3.2 1.1 2.9-.8l-1.1-7.5c-.3-1.9-3.2-1-2.9.8h0z"/><path d="M944.4 966.7c13.4 4.4 23-16.1 19.9-26.7-.5-1.8-3.4-1.1-2.9.8 2.4 8.3-5.1 26.7-16.2 23-1.8-.6-2.6 2.3-.8 2.9h0z"/><path d="M963.4 940.6c6.1-7.2 12.7-13.9 19.9-20 1.5-1.2-.7-3.4-2.1-2.1-7.2 6.1-13.9 12.7-19.9 20-1.3 1.4.8 3.6 2.1 2.1h0z"/><path d="M980.9 921c5.1 2 11 .3 14.5-4 3.7-4.6 4-10.9 2-16.2-.7-1.8-3.6-1-2.9.8 1.6 4.3 1.7 9.2-1.1 13-2.7 3.7-7.5 5.1-11.8 3.5-1.7-.7-2.4 2.2-.7 2.9h0zm-55.4 31c-.1-.2-.2-.3-.3-.5-1.1-1.6-3.3-.2-2.6 1.5.4 1 .8 1.9 1 3 .3 1 1.3 1.3 2.2.9 5.5-2.7 11.5-3.8 15.2 2.1 1 1.6 3.6.1 2.6-1.5-4.6-7.4-12.2-6.7-19.3-3.2.7.3 1.5.6 2.2.9-.4-1.3-.8-2.5-1.3-3.7-.9.5-1.7 1-2.6 1.5.1.2.2.3.3.5 1.1 1.6 3.7.1 2.6-1.5h0z"/><path d="M925.6 954.5c2.5-1.1 5.1-1 7.8-1.3 2.5-.3 5.7-1 7.1 1.8.8 1.7 3.4.2 2.6-1.5-1.4-3-4.5-3.8-7.6-3.6-3.8.3-7.9.4-11.4 2-1.8.8-.3 3.3 1.5 2.6h0z"/><path d="M924.1 951.9c.3.7 3-.8 3.8-1 1.3-.3 2.6-.4 3.9-.4 1.7 0 3.3 0 4.7 1.2.9.8 1.7 2.4 2.3 3.5 1.1 1.6 3.6.1 2.6-1.5-1.1-1.7-2.1-3.8-3.7-5-2-1.5-5.1-1.4-7.5-1.2-2.1.1-10.4 1.5-9 5.1.7 1.9 3.6 1.1 2.9-.7h0z"/><path d="M930.6 947.7c-.1-.1-.1-.2-.2-.2.1.4.1.8.2 1.2 0-.1 0-.2.1-.3-.2.3-.5.6-.7.9 1.3-1 3.8 0 5 .8 1.6 1.1 3.1-1.5 1.5-2.6-1.7-1.1-3.7-1.7-5.7-1.5-1.6.1-4.2 1.2-2.8 3.2 1.1 1.6 3.7.1 2.6-1.5h0zm47-53.7c-.1 2.5.1 5 .7 7.5.5 1.9 3.3 1.1 2.9-.8a24.98 24.98 0 0 1-.6-6.7c.1-1.9-2.9-1.9-3 0h0z"/><path d="M977.1 893.9c-1 2.1-1.3 4.4-.6 6.6.6 1.8 3.5 1.1 2.9-.8-.4-1.4-.4-2.9.3-4.3.8-1.7-1.7-3.3-2.6-1.5h0zM961 939.1c4.9-6.5 10.4-12.2 16.7-17.3 1.3-1.1-.4-3.3-1.8-2.4-6.6 4.7-12.4 10.1-17.6 16.4-1.2 1.5.7 3.5 2.1 2.1 6.6-6.6 13.4-13 20.5-19.1 1.3-1.1-.4-3.3-1.8-2.4-6.5 4.5-12.1 9.7-16.9 15.9-1.2 1.5.8 3.6 2.1 2.1 5-5.5 10.3-10.6 15.9-15.5 1.5-1.3-.7-3.4-2.1-2.1-5.2 4.5-9.7 9.6-13.6 15.3-1 1.4 1.3 3.1 2.4 1.8 4.2-5.1 8.7-9.8 13.6-14.3l-2.1-2.1-11.2 10.6 2.1 2.1c4-4.6 8.2-8.9 12.7-12.9 1.3-1.1-.4-3.3-1.8-2.4-1.1.7-1.3.9-2.3 1.9l2.4 1.8c.9-.8 1.9-1.6 2.8-2.4l-1.8-2.4-1.8 2.1c-1.1 1.2.3 3.3 1.8 2.4l3.5-2.3-2.1-2.1-1.1 1.7c-1.3 1.5.6 3.3 2.1 2.1.8-.6 1.6-1.1 2.3-1.7l-2.1-2.1c-.4.6-.7 1.3-1.1 1.9-.9 1.6 1.1 2.8 2.4 1.8l4-3.1-2.4-1.8c-.6 1.1-1.3 2.1-2.2 2.9-1.1 1.2.4 3.4 1.8 2.4 1.6-1.3 3.3-2.4 5.1-3.4l-1.8-2.4-3.6 4.2c-1.1 1.3.3 3.1 1.8 2.4 4.5-2.1 6.8-6.1 9-10.3l-2.7-1.2c-2.1 5.2-6.3 8.5-11.7 9.6-1.9.4-1.1 3.3.8 2.9 4.2-.8 7.6-2.8 10.3-6.1 1.2-1.5-.9-3.6-2.1-2.1-2.4 2.9-5.3 4.6-9 5.4.3 1 .5 1.9.8 2.9 6.5-1.4 11.3-5.6 13.8-11.7.6-1.6-2-2.7-2.7-1.2-2 3.8-3.9 7.3-8 9.2l1.8 2.4 3.6-4.2c1.1-1.2-.3-3.3-1.8-2.4-1.8 1-3.5 2.2-5.1 3.4l1.8 2.4c1-1.1 1.9-2.2 2.7-3.5 1-1.6-1.1-2.8-2.4-1.8l-4 3.1 2.4 1.8c.4-.6.7-1.3 1.1-1.9.7-1.3-.7-2.9-2.1-2.1a54.57 54.57 0 0 0-3 2.1l2.1 2.1c.8-1 1-1.2 1.6-2.3.7-1.3-.7-2.9-2.1-2.1l-3.5 2.3 1.8 2.4 1.8-2.1c1.1-1.3-.3-3.2-1.8-2.4-1.7.9-2.7 1.9-3.9 3.4-1.1 1.4 1.2 3 2.4 1.8l1.7-1.4-1.8-2.4c-4.6 4-8.8 8.3-12.7 12.9-1.3 1.5.7 3.5 2.1 2.1l11.2-10.6c1.4-1.3-.7-3.4-2.1-2.1-4.9 4.4-9.4 9.2-13.6 14.3l2.4 1.8c3.8-5.5 8.1-10.3 13.1-14.7l-2.1-2.1c-5.6 4.9-10.9 10-15.9 15.5l2.1 2.1c4.7-6 10.1-11.1 16.3-15.4l-1.8-2.4c-7.1 6.1-13.9 12.5-20.5 19.1l2.1 2.1c5-6 10.6-11.3 17-15.9l-1.8-2.4c-6.5 5.3-12.2 11.2-17.2 17.9-1.1 2.2 1.5 3.7 2.7 2.1h0zm-36 20.2c4.5-2 18.2-.9 18.3 6.2 0 1.9 3 1.9 3 0-.2-9.7-16-11.8-22.9-8.8-1.7.8-.2 3.3 1.6 2.6h0z"/><path d="M957.4 938.9c1.6 6.5-1.1 14.2-7.6 16.8-1.6.6-2.9.5-3.9 2-1.1 1.5-.3 3.8-.8 5.5-.2.6.1 1.4.7 1.7 4.8 2.4 10.2-1.2 13.1-5.1 4.5-6 4.4-13.7 3.8-20.7-.2-1.9-3-2-3 0-.2 9-2.9 19.5-13.2 21.2.5.8 1 1.7 1.5 2.5-.1.1 3.8.7 4.4.5 1.9-.6 3.2-2.1 4.4-3.6s-.7-3.4-2.1-2.1c-.7.7-1.4 1.3-2.2 1.8-1.2 1.4-2.3 1-3.2-1.3-1.7-.9-3.2 1.7-1.5 2.6 2.3 1.2 6.4.3 4.4-3-.3-.4-.8-.8-1.3-.7-2.5.2-4.9 3-3.5 5.4 2.3 3.9 7.5-.9 9.3-2.5l-2.1-2.1c-2.1 2.5-3.8 1.4-6.5 2-1.1.2-1.5.1-2.3 1-1 1.2 0 2.8 1.5 2.5 11.6-1.9 15.2-13.8 15.4-24h-3c.4 4.8.8 9.9-.8 14.5-1.4 3.9-6.5 11.1-11.5 8.7.2.6.5 1.1.7 1.7.6-1.8 0-3.5 1.5-4.9.3-.3 2.5-.9 2.9-1.1 2.1-1.1 3.8-2.8 5.1-4.7 3.2-4.4 4-9.8 2.8-15.1-.5-2.2-3.4-1.4-3 .5h0zm36-27.4a9.58 9.58 0 0 1-2.7 2.6c-.7.5-1 1.3-.5 2.1.4.7 1.4 1 2.1.5 1.5-1 2.7-2.3 3.7-3.7.5-.7.1-1.7-.5-2.1-.8-.4-1.6-.1-2.1.6h0zm113.6-36.6c-1.7 7 2.7 12.9 6.6 18.3 4.7 6.3 9.9 12.1 15.7 17.4 1.4 1.3 3.5-.8 2.1-2.1-4.4-4-8.5-8.3-12.2-12.9-4.2-5.2-11.1-12.8-9.4-19.9.5-1.9-2.4-2.7-2.8-.8h0zm150.4-46.8c5.4-5 11.4-9.3 17.9-12.9 1.7-.9.2-3.5-1.5-2.6-6.7 3.7-12.9 8.1-18.5 13.3-1.4 1.4.7 3.5 2.1 2.2h0zm6.7 6.1c8.1-4.1 16.6-6.6 25.6-7.6 1.9-.2 1.9-3.2 0-3-9.5 1.1-18.6 3.7-27.1 8.1-1.8.8-.2 3.4 1.5 2.5h0zm16.5 10.5h22.2c1.9 0 1.9-3 0-3h-22.2c-1.9 0-1.9 3 0 3h0zm-115.9-146.4c-.8-1.9-.7-4.3.9-5.9 1.7-1.7 3.5-1.3 5.7-1.4 1.6 0 2.8.1 4.1-.9 2.8-2.2 2.1-6.1 3.3-9.1 1.3-3.1 3.6-3.4 6-5.2 1.5-1.1 2.8-2.5 4-4 3-3.7 5.8-9 11-9.7 1.9-.2 1.9-3.2 0-3-5 .6-7.9 3.8-10.8 7.6-2 2.5-3.9 5.4-6.6 7.2-2 1.3-4.2 1.9-5.5 4-1.4 2.2-.9 4.9-2 7.1-1.4 3-5.5 2.1-8.3 3.1-4.3 1.6-6.5 6.7-4.8 10.9.9 1.8 3.8 1.1 3-.7h0zm15.3 6.4c.5-4.2 1.2-10.4 6.1-11.9 1.7-.5 3.7.5 5.3-.5 1.2-.7 1.4-1.9 1.8-3.2 1-2.8 2.2-5.2 4.4-7.4 6.5-6.8 15.7-10.1 21.4-17.8 1.1-1.6-1.5-3.1-2.6-1.5-6.4 8.8-18.4 11.8-24 21.2-1.1 1.8-1.5 5.3-3.7 6.1-2.2.7-3.9.1-6.1 1.6-4.3 3.1-5 8.5-5.6 13.4-.2 1.9 2.8 1.9 3 0h0z"/></g><path d="M766.2 562.2c-14 22-29.9 45-47.9 68.7-23.8 31.3-47.5 58.9-70.3 83l-16.8 14.4c-42.7 2-64.2 5.7-64.7 11.2-.3 3.3 7.4 7.3 23.2 12-35.8 19.7-53.1 30.9-51.9 33.5 1 2.2 14.8-1.5 41.5-11.2-11.1 9.6-36.9 32.6-33.5 37.5 3.2 4.7 31.2-9.1 44.7-16-5.8 9.3-6 12.8-4.8 14.2 4.2 4.6 30-8.8 47.7-27.4 11.5-12.1 18.1-24.8 21.8-33.9 28.2-18.3 49-36.9 63.1-51.1 24.7-24.8 40.8-41.1 48.7-67.9 8.2-27.6 3.4-52.6-.8-67z" class="R S T U"/><g class="Q"><path d="M605.1 749.1c6.7 3.6 14.3 4.3 21.5 1.8 1.8-.6 1-3.5-.8-2.9-6.5 2.3-13.2 1.8-19.2-1.5-1.7-.9-3.2 1.7-1.5 2.6h0zM548.8 811c14.9-10.7 30.3-20.6 46.2-29.6 1.7-1 .2-3.6-1.5-2.6-15.9 9.1-31.3 19-46.2 29.6-1.6 1.2-.1 3.8 1.5 2.6h0zm101.4-96.6c6.9 5.5 11.3 13 12.7 21.8.3 1.9 3.2 1.1 2.9-.8-1.4-9.2-6.1-17.3-13.4-23.1-1.6-1.2-3.7.9-2.2 2.1h0zm12.7-13c9.8 5.7 11.9 17.3 13.5 27.6.3 1.9 3.2 1.1 2.9-.8-1.7-11.2-4.3-23.2-14.9-29.4-1.7-1-3.2 1.6-1.5 2.6h0zm-29.6 23.9c1.2 11.6 9.8 21.3 21.3 23.7 1.9.4 2.7-2.5.8-2.9-10.1-2.1-18-10.5-19.1-20.8-.2-1.9-3.2-1.9-3 0h0z"/><path d="M635 724.5c2.2 11.4 9.7 20.8 20.3 25.6 1.7.8 3.3-1.8 1.5-2.6-9.9-4.4-16.8-13.1-18.9-23.8-.3-1.9-3.2-1.1-2.9.8h0zm-45.5 74.4a242.51 242.51 0 0 1 18-14.1c1.6-1.1.1-3.7-1.5-2.6-6.4 4.6-12.6 9.5-18.6 14.6-1.5 1.2.6 3.3 2.1 2.1h0zm102.1-131.2c9.1 6.9 14.4 17.5 14.5 28.9 0 1.9 3 1.9 3 0-.1-12.6-6-24-16-31.5-1.5-1.2-3 1.4-1.5 2.6h0zm14.3-15.6c11 7.8 13 21.5 13 34.1 0 1.9 3 1.9 3 0 0-13.8-2.6-28.2-14.5-36.7-1.6-1.1-3.1 1.5-1.5 2.6h0zm27.5-39.4c5.1 3.3 8.3 8.5 9.1 14.5.3 1.9 3.2 1.1 2.9-.8-.9-6.8-4.8-12.6-10.5-16.3-1.6-1-3.1 1.6-1.5 2.6h0zm11.5-10.7c2.8 1.7 4.8 4.2 6.1 7.2.8 1.8 3.4.2 2.6-1.5-1.5-3.4-4-6.2-7.2-8.2-1.6-1.1-3.1 1.5-1.5 2.5h0z"/></g><g fill="#666"><path d="M757.5 613.4c-3.9-1.4-16.4 36.5-46.1 73.5-22.5 28-47.3 46.2-65.8 57.5-3.4 8.2-9.5 19.9-20.2 31.6-14 15.3-29.2 23.1-38.3 26.9-1.5 2.2-3 4.9-2.1 6.2 2.2 3 15.9-3.4 18.6-4.7 5.1-2.4 21-10.6 37.3-31.1 4.4-5.5 10.1-13.6 15.5-24.3 18.5-12.4 39.2-28.3 60.1-48.7 11.4-11.1 21.3-22.1 30-32.6 12.3-43.2 13-53.5 11-54.3zM547.3 810.7c6.1-2.7 14.9-7 24.9-12.9 19.1-11.4 32.1-22.9 33.7-21.2.8.8-1.7 4.2-3.1 6.2-2 2.8-6.8 8.9-20.2 16.6-7.9 4.5-16.4 9.3-28.5 10.9-2.9.3-5.2.4-6.8.4z" opacity=".4"/><path d="M752.9 630.5c-2.9 9.2-7.9 22.1-16.6 36.2-7.5 12.2-14.7 20.3-24.3 31.1-7.2 8.1-17.2 18.6-30 30 7.1-5.5 14.4-11.3 21.7-17.6 16.3-14 30.6-28 43-41.4l6.2-38.3z" opacity=".5"/></g><g class="R S"><path d="M1088.8 422.2c16.7 8.1 27.1 29.5 31 64.1l-76.7 352.4L760 811.4l-26.5-62.7c183.5-243.5 301.9-352.3 355.3-326.5z" class="Q V"/><path d="M799.3 418c-17 69.8-32.9 142.8-47.2 218.9l-19.2 110.6c28.5 9.4 61.8 18.2 99.5 24.3 61.6 9.9 115.8 9.5 158.5 5.9l49.4-187.2 49.4-169.5c-48.4-8-106.1-13.6-171-12.5-43.8.7-83.8 4.4-119.4 9.5z" class="T U"/></g><g class="W"><ellipse cx="962.4" cy="194.7" rx="7.3" ry="7.9"/><path d="M1132.2 83.4l16.7-36.3c.9-.2 6.2-1.4 11.2 2.1 4.2 3 5.3 7.3 5.6 8.4-3.8 2.8-8.8 7.2-11.9 13.9-4.3 9.3-2.3 16.7-6.3 18.8-2.2 1.2-6.4.8-15.3-6.9z"/><path d="M1120.3 72.9c-4.1 2.6-4.9 8.5-6.3 20.2-.4 3.2-.6 5.8-.7 7.7l13.3-.7 7-16.7c-3.1 1.2-6.4.9-7.7-.7-1.7-2.1-.7-7.3 4.2-10.5-5.6-1.4-8.5-.1-9.8.7zM782.2 663.2c1.3.3 3.3.9 5.4 2.2 3 2 4.6 4.5 5.4 5.8 2.5-2 6.1-5.4 9.4-10.3 5.9-8.8 5.7-15.1 10.3-34.5 4-16.7 6.6-22.1 10.7-26.9 2.2-2.5 8.3-9.6 13.9-8.1 4.8 1.3 8.3 7.2 8.5 12.5.1 3.1-.9 5.6-1.6 7l25.3-2.1c.3-3 .4-8-1.8-13.4-5.4-13.1-19.8-16.8-22.8-17.5-14.9-3.3-26.4 4.7-28.6 6.3-1.1.8-5.2 3.7-9.4 9.4-8.7 11.9-8.1 23-11.2 36.7-1.9 8.4-5.5 19.8-13.5 32.9z"/></g><path d="M862.5 585.1c2.8-3.9 8.2-10.6 17.4-15.7 3.4-1.9 15.2-8.2 30.8-6.2 5.2.7 20.1 2.6 29.2 15.1 7.5 10.3 6.9 22.3 6.7 24.7-.4 7.6-2.7 8-3.4 16.8-.5 6.6-1.2 16.3 5 23.6 5.1 5.9 12.5 7.4 16.3 7.9-1.4 1.6-3.2 4-4.5 7.3-2.2 5.5-2 10.4-1.7 12.9-11.2 1.6-18.1-1.8-20.7-3.4-12.7-7.4-17.1-24.5-16.4-35.8.3-4.3 1.3-8.7 1.5-18.7.2-6.4.2-9.7-.8-12.8-2.1-6.1-7.8-13.9-16.3-15.1-7.8-1.2-15.7 4.1-19.6 8.4-3.5 3.9-5.3 8.6-12.3 14.6-1.2 1-2.2 1.8-2.8 2.2l-8.4-25.8zm-46.7-3.5c6.4-12.3 13.2-21.3 18.2-27.3 10.4-12.3 17.3-20.2 28.4-21.8 3.1-.5 13.1-1.4 20 4.7 3.6 3.2 5.4 7.6 8 13.8 1.9 4.5 3 8.5 3.6 11.3a78.37 78.37 0 0 0-9.5 4c-6.6 3.3-11.9 7.1-16 10.5-.9-7.5-3.4-13.1-6.5-13.5-2.1-.2-4.1 2-8 6.2-2.8 3.1-4.8 5.9-6.2 8a46.26 46.26 0 0 0-13.8-1.1c-8.2.7-14.5 3.3-18.2 5.2z" fill="#ec615b"/><path d="M930.9 568.5c1.1-1.4 4.2-4.9 9.1-5.9 6.1-1.2 10.9 2.1 13.9 4.1 7.3 4.9 10 12.1 10.8 14.4 3.3 9.3-.9 10.8 1 22.1 2.6 15.3 12.6 26.2 15.4 29.3 1.6 1.8 3.1 3.2 4.1 4.1l-3.6 5.1c-3.9-3.4-8.9-8.4-13.4-15.4-2.4-3.8-6.2-9.8-8.4-18.2-2.2-8.5-.3-9.9-2.9-19.3-1.9-6.9-3.2-11.8-7.6-15-4.9-3.5-10.8-3.3-14.5-2.8-1.2-.8-2.5-1.6-3.9-2.5z" class="W"/><g class="Q"><path d="M823.4 468.6c-16.7 44.6-25.6 91.8-26.6 139.5 0 1.9 3 1.9 3 0 .9-47.4 9.9-94.3 26.5-138.7.7-1.8-2.2-2.6-2.9-.8h0z"/><path d="M826.5 470.2c59.3-15 122.1-13.1 180.4 5.6 1.8.6 2.6-2.3.8-2.9-58.7-18.8-122.2-20.8-182-5.6-1.9.4-1.1 3.3.8 2.9h0z"/><path d="M1005.1 476.6c1.1 12.2-1.6 24.4-3.5 36.4-1.8 11.2-3.7 22.5-6 33.6-4.7 22.3-11.3 44.2-22 64.4-.9 1.7 1.7 3.2 2.6 1.5 10.8-20.4 17.5-42.6 22.3-65.1 2.4-11.4 4.3-23 6.2-34.5 1.9-11.9 4.5-24.2 3.4-36.3-.1-1.9-3.1-1.9-3 0h0zM822.2 578.8c-34.8 13.3-20.9 61.2-44.1 84-1.4 1.4.7 3.5 2.1 2.1 11.3-11.1 14.3-26.8 17.3-41.8 3.3-16 8.4-34.9 25.4-41.4 1.9-.7 1.1-3.6-.7-2.9h0zm8.6 12.9c-26.5 18.6-13.1 60.3-39.2 78.6-1.6 1.1-.1 3.7 1.5 2.6 26.5-18.6 13.1-60.3 39.2-78.6 1.5-1.1 0-3.7-1.5-2.6h0z"/><path d="M778.2 665.9c5-.3 9.5 1.6 12.9 5.2 1.3 1.4 3.4-.7 2.1-2.1-3.9-4.2-9.3-6.4-15-6.1-1.9.1-1.9 3.1 0 3h0zm37.6-83.1c7.8-15 18.1-28.8 30.7-40.1 6.8-6.1 15.5-11.8 25.2-10.1 9.4 1.7 14 10.4 17.3 18.5.7 1.8 3.6 1 2.9-.8-2.9-7.2-6.6-14.9-13.8-18.7-8.2-4.3-17.9-2.1-25.4 2.6-17 10.6-30.4 29.6-39.5 47.1-.9 1.7 1.7 3.3 2.6 1.5h0zm62.2-9.7c20-18.2 65.1-8.5 67 21.4.9 13.6-5.9 27.4-2.5 41 2.8 11.1 12.7 15.1 23 16.9 1.9.3 2.7-2.5.8-2.9-6.9-1.2-14.7-3.2-18.7-9.5-4.6-7.3-2.9-17.1-1.6-25.1 2.1-13.2 4.3-26.7-4.3-38.2-7.7-10.3-21.1-14.3-33.4-15.3-11.6-1-23.5 1.5-32.3 9.5-1.6 1.4.5 3.5 2 2.2h0zm25 14.5c14.2-.4 17.5 15.9 17.2 26.8-.3 10.4-1.2 20.7 1.5 31 4.2 15.9 18.5 30.2 36.1 26.1 1.9-.4 1.1-3.3-.8-2.9-10.6 2.4-21.3-3.3-27.2-12.2-6.1-9.3-7.4-20.8-7.1-31.7.3-9.4 1.9-19.6-2.4-28.5-3.3-6.8-9.6-12-17.4-11.8-1.8.2-1.8 3.2.1 3.2h0z"/><path d="M962.1 651.8c-3.5 3.5-5.4 8.2-5.1 13.2.1 1.9 3.1 1.9 3 0-.3-4.2 1.2-8.1 4.2-11.1 1.4-1.3-.8-3.5-2.1-2.1h0zm2.5 16.6c1.1 2.1 2 4.3 2.8 6.6.6 1.8 3.5 1 2.9-.8a42.08 42.08 0 0 0-3.1-7.3c-.9-1.7-3.5-.2-2.6 1.5h0zm3.4-6.5c2.8.1 5.2 1.3 7.1 3.3 1.3 1.4 3.4-.7 2.1-2.1-2.4-2.6-5.7-4-9.2-4.1-1.9-.2-1.9 2.8 0 2.9h0zm5-8.1c3.2-.1 6.4-.6 9.5-1.4 1.9-.5 1.1-3.4-.8-2.9-2.9.8-5.7 1.2-8.7 1.3-1.9.1-1.9 3.1 0 3h0zm-200.8 18.7c-2.7 1.9-5 4.3-6.5 7.2-.9 1.7 1.7 3.2 2.6 1.5 1.3-2.5 3.1-4.6 5.4-6.1 1.6-1.1.1-3.7-1.5-2.6h0zm9.8 11l2.5 7.3c.6 1.8 3.5 1 2.9-.8l-2.5-7.3c-.7-1.8-3.6-1-2.9.8h0zm13.8.8l4.5 6c1.1 1.5 3.7 0 2.6-1.5l-4.5-6c-1.2-1.5-3.8 0-2.6 1.5h0zm25.7-70.8c16.5-1.1 33.1-1.7 49.6-1.9h23.8c8 .1 16.4-.3 23.7 3.5 1.7.9 3.2-1.7 1.5-2.6-6-3.2-12.5-3.7-19.3-3.8-8.6-.2-17.2-.2-25.8-.2-17.9.1-35.7.8-53.6 1.9-1.8.2-1.8 3.2.1 3.1h0z"/><path d="M824 580.6c10.2-2.8 21.7-2.9 31 2.8 8.3 5.1 13.5 14.2 12.9 24-.1 1.9 2.9 1.9 3 0 .7-10.3-4.7-20.1-13.1-25.8-10.1-6.9-23.1-7.1-34.5-3.9-2 .5-1.2 3.4.7 2.9h0zm51.6 29.5c4.8-11.8 15.8-20.3 28.4-22 1.9-.2 1.9-3.3 0-3-14.1 1.9-25.9 11-31.3 24.2-.7 1.8 2.2 2.5 2.9.8h0zm56.9-41.8c8.2-7.4 20.3-4.1 26.4 4.3 5.8 8 5.3 17.6 5.7 27 .7 15 7.3 28.2 19.4 37.2 1.6 1.1 3.1-1.5 1.5-2.6-8.3-6.1-14.3-14.9-16.7-24.9-2.4-10.2 0-21.2-3.7-31.2-5.1-13.9-22.3-23.2-34.8-11.9-1.4 1.3.7 3.4 2.2 2.1h0zm3 4.8c9.6-5.8 16.9 4.9 18.8 13 1.8 7.9 1.7 16 4.2 23.8 4.1 12.8 12.2 23.8 23 31.8 1.5 1.2 3-1.4 1.5-2.6a60.28 60.28 0 0 1-17.5-20.4c-4.7-8.8-6.1-17.8-7.3-27.5-.9-7-2.6-14.7-8.5-19.4-4.5-3.6-10.7-4.4-15.7-1.3-1.7 1-.2 3.6 1.5 2.6h0z"/><path d="M946.3 619.2c5.4-.3 10.7.4 15.9 2 1.8.6 2.6-2.3.8-2.9-5.4-1.7-11-2.4-16.7-2.2-2 .2-2 3.2 0 3.1h0zm-95.4-41.5c5.2-9.6 14.7-23.1 26.8-23.4 1.9 0 1.9-3 0-3-13.4.3-23.6 14.2-29.4 24.9-.9 1.7 1.7 3.2 2.6 1.5h0zm12.3 9.6c4.4-6 9.7-11.2 15.7-15.5 1.6-1.1.1-3.7-1.5-2.6-6.5 4.6-12 10.2-16.8 16.6-1.2 1.5 1.4 3 2.6 1.5h0z"/><path d="M858.9 564.5c4.8 2.3 7.8 7.1 7.8 12.4 0 1.9 3 1.9 3 0 0-6.4-3.5-12.2-9.3-15-1.7-.8-3.3 1.8-1.5 2.6h0zm29.4-15.8c2.4 4.5 4.1 9.2 5.2 14.2.4 1.9 3.3 1.1 2.9-.8-1.1-5.2-2.9-10.2-5.5-14.9-.9-1.7-3.5-.2-2.6 1.5h0zm14.2 38.3c2.9 7 5 14.3 6.5 21.7.4 1.9 3.3 1.1 2.9-.8-1.5-7.5-3.7-14.7-6.5-21.7-.7-1.8-3.6-1-2.9.8h0zm81.3-127c0-1.6.9-3 2.6-2.9 1.3 0 2.4.9 2.5 2.2.2 2.9-3.5 3.7-4.8 1.3-1-1.7-3.5-.2-2.6 1.5 1.3 2.3 4.2 3.5 6.7 2.7 2.6-.8 4-3.6 3.6-6.3s-2.9-4.5-5.6-4.5c-3.3.1-5.4 2.8-5.4 5.9 0 2 3 2 3 .1h0zm16.5 4.9c-.7-.8-1.9-2.9-.5-3.6 1.2-.6 2.8 1.1 3.3 2s.7 2.1-.3 2.7c-.6.4-1.6.6-2-.1-1-1.7-3.6-.2-2.6 1.5 1.3 2.1 4.1 2.5 6.1 1.2 2.5-1.5 2.6-4.9 1.1-7.2-1.5-2.4-5-4.4-7.6-2.4-2.8 2.1-1.6 5.8.3 8 1.3 1.5 3.4-.6 2.2-2.1h0zm67.5-33.6c-.1.1-.2.1-.3.2.4-.1.8-.1 1.2-.2-1-.2-.2-2.7.1-3.1.7-1 1.8-1.3 2.9-.9 2.6.9 2 4.7-.7 4.7-1.9 0-1.9 3 0 3 2.9 0 5.4-2.4 5.5-5.3s-2.4-5.2-5.1-5.4c-2.8-.3-5.2 1.6-5.9 4.3-.6 2.3.6 7.1 3.9 5.5 1.7-1.1.2-3.7-1.6-2.8h0zm-64.3 43.2c-1.9 48-12.7 95.3-31.9 139.4-.8 1.8 1.8 3.3 2.6 1.5 19.4-44.5 30.4-92.3 32.4-140.9 0-2-3-2-3.1 0h0zM831.3 596c2.5-2.8 6.4-1.7 8.6.9 2.4 2.9 2.9 6.9 3.3 10.5.2 1.9 3.2 1.9 3 0-.6-5.1-1.4-10.7-5.7-14.1-3.4-2.7-8.4-2.8-11.4.5-1.2 1.5.9 3.6 2.2 2.2h0zm-12.6 17h5c1.9 0 1.9-3 0-3h-5c-1.9 0-1.9 3 0 3h0z"/><path d="M822.6 609.7l.3-2.5-2.9-.4-.4 2.2 2.9.4c-.2-1.5.1-2.9.7-4.3l-2.8-.8c.2 2 .2 3.5-.1 5.5l2.9.4c.3-2.6.9-4.9 1.9-7.3l-2.8-.8c.3 2.5.1 4.8-.6 7.3l2.9.8c.7-3.7 1.4-7.2 3.2-10.5-.9-.3-1.9-.5-2.8-.8.1 3.4-.4 6.6-1.4 9.9 1 .3 1.9.5 2.9.8.6-3.9 1.6-7.5 3.1-11.2-1-.1-2-.3-2.9-.4.1 3.8-.3 7.4-1.2 11 1 .3 1.9.5 2.9.8l3.2-13.4c-1-.1-2-.3-2.9-.4l-1.5 13.4c-.2 1.7 2.7 2.1 2.9.4l2.1-14.9h-2.9c1.7 5.3-.7 10.9.6 16.3.4 1.7 2.8 1.2 2.9-.4l1.4-16.5h-3l-.3 15.6c0 1.6 2.7 2.1 2.9.4.9-5.7.9-11.3.9-17.1h-3l.7 15.7c.1 1.9 2.9 1.9 3 0l.9-14.9h-3l.8 15.1c.1 1.9 3 1.9 3 0l.3-13.2h-3l1.1 13.5c.1 1.6 2.6 2.2 2.9.4 1.1-5.1.4-10.1-.4-15.2-1 .3-1.9.5-2.9.8 1.9 4.8.3 10.1 2.1 14.9.6 1.6 2.8 1.4 2.9-.4.3-4.9.1-9.6-.7-14.4-1 .3-1.9.5-2.9.8 1.3 4.4 1.6 8.9 1.8 13.6.1 1.6 2.7 2.1 2.9.4.7-3.9.5-7.7.3-11.6-1 .1-2 .3-2.9.4 1 3.7 1.6 7.4 1.9 11.2.2 1.9 3 2 3 0v-8.9c-1 .1-2 .3-2.9.4.6 2.5.9 5 .8 7.6 1-.1 2-.3 2.9-.4l-.3-1.7c.1-1.9-2.9-1.9-3 0-.1 1.3-.1 1.3.4 2.5.6 1.5 2.9 1.4 2.9-.4.1-2.9-.2-5.6-.9-8.4-.4-1.6-2.9-1.3-2.9.4v8.9h3c-.4-4.1-1-8-2-12-.4-1.6-3.1-1.3-2.9.4.3 3.6.5 7.2-.1 10.8 1 .1 2 .3 2.9.4-.2-4.9-.5-9.7-1.9-14.4-.6-1.9-3.2-1.1-2.9.8.8 4.5 1 9 .6 13.6 1-.1 2-.3 2.9-.4-1.9-4.8-.2-10.1-2.1-14.9-.7-1.8-3.2-1.1-2.9.8.8 4.6 1.3 9 .4 13.6 1 .1 2 .3 2.9.4l-1.1-13.5c-.2-1.9-3-2-3 0l-.3 13.2h3l-.8-15.1c-.1-1.9-2.9-1.9-3 0l-.9 14.9h3l-.7-15.7c-.1-1.9-3-1.9-3 0 0 5.4 0 10.9-.8 16.3 1 .1 2 .3 2.9.4l.3-15.6c0-2-2.8-1.9-3 0l-1.4 16.5c1-.1 2-.3 2.9-.4-1.3-5.4 1.1-10.9-.6-16.3-.4-1.3-2.7-1.6-2.9 0l-2.1 14.9c1 .1 2 .3 2.9.4l1.5-13.4c.2-1.7-2.6-2-2.9-.4l-3.2 13.4c-.4 1.9 2.4 2.7 2.9.8.9-3.9 1.4-7.8 1.3-11.8 0-1.8-2.3-1.9-2.9-.4-1.5 3.6-2.5 7.3-3.1 11.2-.3 1.9 2.3 2.7 2.9.8 1.1-3.5 1.6-7 1.5-10.7 0-1.4-2.1-2.1-2.8-.8-1.9 3.5-2.8 7.3-3.5 11.2-.3 1.9 2.3 2.7 2.9.8.8-2.7 1-5.2.7-8.1-.1-1.3-2.1-2.3-2.8-.8-1.2 2.9-2 5.7-2.3 8.8-.2 1.7 2.7 2.1 2.9.4.4-2.2.5-4.1.2-6.3-.2-1.3-2.1-2.3-2.8-.8-.8 2-1.2 3.7-1.1 5.8.1 1.7 2.4 2 2.9.4.5-1.4.5-1.5.5-3 .1-1.7-2.5-2-2.9-.4s-.4 1.7-.4 3.3c.3 2.3 3.3 2.3 3.3.3h0zm81.4-21.3a140.29 140.29 0 0 1 7.2 21.9c.4 1.7 2.9 1.3 2.9-.4.1-7.7-5.2-13.9-5.8-21.4-.9.4-1.7.7-2.6 1.1 2.9 2.3 3.5 8.2 4.6 11.7.9 3.2 1.7 6.3 3.6 9.1.9 1.3 3.4.5 2.7-1.2-2.6-6.7-6.3-13.7-7.4-20.8-.8.5-1.7 1-2.5 1.5 5.5 4.7 4.7 13 8.7 18.7 1.1 1.6 3.3.3 2.6-1.5l-7.3-17.3c-.6.7-1.1 1.5-1.7 2.2 3.1 1.1 4.9 8.7 6.1 11.4.9-.5 1.7-1 2.6-1.5l-6-12.9-2.1 2.1c3.1 1.5 4 5.8 4.9 8.8.4 1.5 1.1 3.1 1.2 4.7.3 3.2.1.3-.5 2-.6 2.1-.9 4.6 2.3 4.3-.4-.8-.9-1.5-1.3-2.3-.1.1-.3.1-.4.2-1.1.2-1.4 1.7-.7 2.5 1.2 1.2 2.2 1.8 3.9 2.1.9.2 2-.4 1.9-1.4-.6-6.5-2.2-12.6-4.8-18.5-.9.5-1.7 1-2.6 1.5 2.2 4.2 3.2 8.3 3.3 13 0 1.9 3 1.9 3 0-.1-5.2-1.3-9.9-3.7-14.5-.9-1.7-3.4-.2-2.6 1.5 2.4 5.4 3.9 11.1 4.4 17a23.07 23.07 0 0 1 1.9-1.4l-2.6-1.4c-.2.8-.4 1.7-.7 2.5 1.2-.3 1.5-.5 2.2-1.5.7-.9-.2-2.4-1.3-2.3-.1 0 .4 1 .9.1l.6-1.2c.6-1.9-.9-5.1-1.4-6.9-1.2-4.1-2.3-9.4-6.5-11.4-1.4-.7-2.7.7-2.1 2.1l6 12.9c.8 1.8 3.4.2 2.6-1.5-1.8-4.2-3.1-11.1-7.8-12.8-1.4-.5-2.1 1.1-1.7 2.2l7.3 17.3c.9-.5 1.7-1 2.6-1.5-4.3-6-3.4-14.2-9.2-19.3-1.2-1-2.7 0-2.5 1.5 1.1 7.1 4.8 14.1 7.4 20.8l2.7-1.2c-2.6-3.8-3.4-8.9-4.7-13.3-.9-3-1.4-6.1-3.9-8.2-.9-.7-2.7-.4-2.6 1.1.7 7.5 5.9 13.8 5.8 21.4 1-.1 2-.3 2.9-.4a140.29 140.29 0 0 0-7.2-21.9c-.5-1.8-3.4-1-2.6.7h0zm-64.7-87.5c1.5.8 2.7 1.9 3.5 3.4.9 1.7 3.5.2 2.6-1.5-1-1.9-2.7-3.5-4.6-4.5-1.7-.8-3.2 1.8-1.5 2.6h0zm2.3-5.8c1.6.7 2.8 1.9 3.4 3.5.7 1.8 3.6 1 2.9-.8-.8-2.3-2.5-4.3-4.8-5.3-.7-.3-1.6-.2-2.1.5-.4.7-.2 1.8.6 2.1h0zm10.8 3.4a9.5 9.5 0 0 0 2.1-3.8c.5-1.9-2.4-2.7-2.9-.8-.2.9-.7 1.8-1.3 2.5-.5.6-.6 1.5 0 2.1.5.5 1.5.6 2.1 0h0zm36.4 74.2c-.7 2.7-.3 5.4 1.1 7.8.7 1.3 2.7.1 1.9-1.1-1.1-1.9-1.4-4-.8-6.1.3-1.4-1.9-2-2.2-.6h0zm7.1-.8c-.9 2.1-1.1 4.4-.5 6.6.4 1.4 2.6.8 2.2-.6-.5-1.6-.4-3.3.3-4.9.5-1.3-1.4-2.5-2-1.1h0zm30.9 45.6c2.1-1.8 4.7-2.8 7.5-2.9 1.4 0 1.5-2.3 0-2.3-3.4.1-6.5 1.3-9.1 3.6-1.1 1 .5 2.6 1.6 1.6h0z"/><path d="M927.3 623.6l5.2-2.8c1.3-.7.1-2.6-1.1-1.9l-5.2 2.8c-1.3.6-.2 2.6 1.1 1.9h0zm4 22.2c.3-2.8 2.3-5.1 4.9-6 1.4-.4.8-2.6-.6-2.2-3.7 1.2-6.2 4.3-6.6 8.2-.1 1.4 2.2 1.4 2.3 0h0zm2.7 10.1c2-2.6 4.4-4.6 7.3-6.2 1.3-.7.1-2.6-1.1-1.9-3 1.7-5.6 3.9-7.7 6.6-1 1 .6 2.6 1.5 1.5h0zm-140.8-3.4c1.8.8 3.3 2.1 4.1 4 .5 1.3 2.7.7 2.2-.6-1-2.4-2.7-4.3-5.1-5.3-.6-.2-1.2-.2-1.5.4-.4.5-.3 1.3.3 1.5h0zm2.9-2.9c1 .7 1.8 1.5 2.4 2.6.7 1.3 2.7.1 1.9-1.1-.8-1.4-1.9-2.5-3.2-3.4-1.2-.8-2.3 1.1-1.1 1.9h0zm46.3-66c.9 2.1.7 4.2-.5 6.1-.8 1.2 1.1 2.3 1.9 1.1 1.5-2.3 1.8-5.2.8-7.8-.5-1.3-2.7-.7-2.2.6h0zm5.3 3.8c.2 1.7-.4 3.2-1.6 4.4-1.1 1 .5 2.6 1.6 1.6 1.7-1.5 2.5-3.7 2.3-6-.2-1.4-2.4-1.5-2.3 0h0zm-15.9 6.6c.2-1.1 2-1.6 2.9-1.6 1 0 2.2.5 3.1.9 1.7.8 3.2 2 4.3 3.5 2.6 3.3 2.8 7.5 1.4 11.4-.5 1.4 1.7 1.9 2.2.6 2.2-5.9.5-12.4-4.6-16.1-2.9-2.1-10.3-4.6-11.5.7-.3 1.4 1.9 2 2.2.6h0zm-51.9 14.9c-1.7 1.2-3.5 2.2-5.4 3-1.3.5-.7 2.7.6 2.2 2.1-.9 4.1-1.9 6-3.2 1.1-.8 0-2.8-1.2-2h0zm3.6 2.8c-1.3 2.5-2.9 4.8-4.7 7-.9 1.1.6 2.7 1.6 1.6 2-2.3 3.7-4.7 5.1-7.4.6-1.4-1.3-2.5-2-1.2h0zm-3.4 56.7c-.5 1-1.1 1.8-2 2.4-.5.3-.7 1-.4 1.5s1 .8 1.5.4c1.2-.8 2.2-1.9 2.8-3.2.3-.5.2-1.2-.4-1.5-.4-.3-1.2-.1-1.5.4h0zm2.8 3.1l1.6 4.7c.5 1.4 2.6.8 2.2-.6l-1.6-4.7c-.5-1.3-2.6-.7-2.2.6h0zM960 677c1.4 1.9 2.1 4.1 2.1 6.4 0 1.4 2.3 1.5 2.3 0 0-2.7-.8-5.3-2.4-7.6-.9-1.1-2.8 0-2 1.2h0zm13.4-.9l3.4 4.1c.9 1.1 2.5-.5 1.6-1.6l-3.4-4.1c-1-1.1-2.6.5-1.6 1.6h0zm14.4-41.5c1.9-1.6 4.2-2.6 6.6-2.9 1.4-.2 1.4-2.4 0-2.3-3.1.4-5.8 1.6-8.2 3.6-1.1.9.5 2.5 1.6 1.6h0zm2.6 4.2c1.5.2 2.8.8 4 1.7s2.3-1.1 1.1-1.9c-1.5-1.1-3.3-1.7-5.2-2-1.3-.2-1.3 2 .1 2.2h0zm-1.8 5c.3 2.2 1.7 4.1 3.5 5.2 1.2.8 2.4-1.2 1.1-1.9-1.4-.9-2.3-2.2-2.5-3.9-.1-1.4-2.3-.8-2.1.6h0zM886.7 484.3c3.8 6.3 6.6 13 8.2 20.1.3 1.4 2.5.8 2.2-.6-1.7-7.3-4.5-14.2-8.4-20.7-.8-1.2-2.8 0-2 1.2h0zm14.6 20.4c-.3-2.1-.2-4.1.4-6.1.4-1.4-1.8-2-2.2-.6-.6 2.2-.7 4.4-.5 6.7.3 1.4 2.5 1.4 2.3 0h0zm7.2 1.7c2.4-5 5.8-9.4 10.2-12.8 1.1-.9 0-2.8-1.1-1.9-4.7 3.6-8.5 8.2-11 13.6-.6 1.2 1.3 2.4 1.9 1.1h0zm7.7-1l8.9-4.2c1.3-.6.2-2.6-1.1-1.9l-8.9 4.2c-1.3.5-.2 2.5 1.1 1.9h0zm35.9 19c-3.6 2-6.6 4.7-8.9 8.2-.8 1.2 1.1 2.3 1.9 1.1 2.1-3.1 4.8-5.6 8.1-7.3 1.4-.8.2-2.7-1.1-2h0zm3.3 5.3c-1.8 2.6-1.9 6-.3 8.6.8 1.2 2.7.1 1.9-1.1-1.2-2.1-1.1-4.4.3-6.4.9-1.2-1-2.3-1.9-1.1h0zm12.6-7c2.7-2.1 5.7-3.6 8.9-4.7 1.4-.4.8-2.6-.6-2.2-3.6 1.2-6.9 2.9-9.9 5.3-1.2.9.4 2.5 1.6 1.6h0z"/><path d="M966.4 529.5c1 1.3 1.7 2.8 2 4.4.3 1.4 2.5.8 2.2-.6-.4-1.8-1.1-3.5-2.3-5-.4-.5-1-.7-1.5-.4s-.8 1.1-.4 1.6h0zm-11.3-17.6l-1-4.7c-.3-1.4-2.5-.8-2.2.6l1 4.7c.3 1.4 2.5.8 2.2-.6h0zm9.7-1.1l.6-4c.1-.6-.2-1.2-.8-1.4-.5-.2-1.3.2-1.4.8l-.6 4c-.1.6.2 1.2.8 1.4.6.1 1.3-.2 1.4-.8h0zm14.8-21.9l-.3-.3c-1-1-2.6.6-1.6 1.6l.3.3c1.1 1 2.6-.6 1.6-1.6l-.3-.3c-1-1-2.6.6-1.6 1.6l.3.3c1.1 1 2.6-.6 1.6-1.6h0zm9.1 38.3c1.4 0 1.5-2.3 0-2.3-1.5.1-1.5 2.3 0 2.3h0zm-15.1 21.4h.6c1.4 0 1.5-2.3 0-2.3h-.6c-1.4.1-1.4 2.3 0 2.3h0zm-5.4 213.6c-2.5-1-.8-4.6.5-5.8 1.9-1.6 5-2.1 6.8-.2 1.7 1.7 1.7 4.7-.6 6-2 1.1-4.7.5-6.7-.3-1.4-.5-1.9 1.7-.6 2.2 3.3 1.3 8.1 1.7 10.4-1.7 2-2.9.6-7.1-2.4-8.8-3.3-1.9-7.9-.3-9.9 2.8-1.8 2.7-1.4 6.7 1.8 8.1 1.5.4 2.1-1.8.7-2.3h0zm-179.5-37.4l-3 13.8c-.3 1.4 1.9 2 2.2.6l3-13.8c.3-1.4-1.9-2-2.2-.6h0zm7.7-.7l-3.8 17.3c-.3 1.4 1.9 2 2.2.6l3.8-17.3c.3-1.4-1.9-2-2.2-.6h0zm9.3 1.2c-2.2 4.7-3.7 9.6-4.6 14.8-.2 1.4 1.9 2 2.2.6.8-4.9 2.3-9.7 4.4-14.2.5-1.4-1.4-2.5-2-1.2h0zm23.6-257.8c-15.7 41.4-24.9 85-27.2 129.3-.1 1.9 2.9 1.9 3 0 2.3-44 11.5-87.3 27.1-128.5.7-1.8-2.2-2.6-2.9-.8h0z"/></g><g fill="#666"><path d="M832 468.7c-6.6 16.3-13.1 35.8-18.2 58.3-5.6 24.6-8.1 46.8-9.1 65.6l8.5-7.3c1.7-4.1 4.2-9.6 7.9-15.8 2.4-4.1 9-14.4 20.6-25.5 7.6-7.2 11.5-10.8 17.2-12.3 1.5-.4 12.2-3 21.6 3.2 5.2 3.4 7.8 8.1 9.8 11.8 3.4 6.2 4.4 12 4.8 15.5l20 1.2 14.5 4c1.5-1.5 5.6-4.8 11.6-5.6 9.4-1.1 16 5.2 17.4 6.5 5.2 5 6.7 10.9 7.5 14.5 1.7 7.3-.1 10.1.6 18.8.5 6.5 2.2 11.9 3.7 16 8.5-17.7 14.3-33.1 18.1-44.5 7.9-23.4 16-48 15.8-80.1-.1-8.4-.7-15.3-1.2-20-21.6-6.6-52.2-13.5-89.3-14-33.1-.4-61.1 4.5-81.8 9.7z" opacity=".38"/><path d="M904.1 459.5c4.8 1.5 16.6 5.9 24.6 17.6 14.2 20.7 3.7 45.3 2.2 48.5-10.2 22.7-32.6 29.5-36 30.4l1.2 6.3c4.1-.4 9.6-.6 15.9.5 7.6 1.2 13.6 3.7 17.6 5.8 1.3-1.7 4-4.6 8.2-6 10-3.4 19.2 4.7 19.6 5.1 1.4 1.3 5.2 5.1 8.5 23.9 2.8 16.1 2.1 24.8 4.1 25.1 2.6.4 6.8-12.6 9.2-20 9.5-30 14.3-45 17.6-63.8 2.8-15.5 5.3-35.5 5.8-59.2-15.1-4.7-33.4-9.2-54.3-11.8-16.2-2-31.1-2.6-44.2-2.4z" opacity=".48"/><path d="M1003.3 490.2c-1.8 11.6-8.4 44.5-36.3 64.4-5.4 3.9-10.9 6.7-16.1 8.8 2.7.9 6.6 2.6 9.8 6.1 5.6 6.4 4.5 14 6.6 29.5.6 4.4 1.7 10.9 3.6 18.6 7.4-18.4 14.8-39.9 20.9-64.2 5.7-23 9.3-44.3 11.5-63.2z" opacity=".4"/></g><g class="Q"><path d="M856.4 577.8c.7-2.6 1.9-5 3.4-7.2.9-1.4-1.3-3.1-2.4-1.8a65.79 65.79 0 0 0-6.1 8.8l2.6 1.5 7-12.8c.8-1.5-1.1-3-2.4-1.8-3.3 3.3-5.7 7.2-7.4 11.6-.6 1.6 1.9 2.5 2.7 1.2l6.4-10.2c.9-1.4-1.2-3.1-2.4-1.8-3.4 3.7-6.1 7.7-8.1 12.3-.8 1.7 1.6 3.2 2.6 1.5l6.1-10.2c-.9-.5-1.7-1-2.6-1.5l-4.4 9.2c-.8 1.7 1.6 3.2 2.6 1.5l6.4-10.8-2.7-1.2-5.4 13.2c-.7 1.6 1.9 2.6 2.7 1.2l6.9-12.4c-.9-.5-1.7-1-2.6-1.5-1.9 4.1-3.6 8.1-4.2 12.6-.2 1.5 2.2 2.1 2.8.8l4.4-9.4-2.7-1.2-3.1 10.5c-.5 1.7 1.8 2.5 2.7 1.2 1.3-1.8 1-3.7-.3-5.3-.9-1.1-2.4-.1-2.6 1.1-.2 2.4.2 4.3 1.6 6.2l2.1-2.1c-1.2-.7-2.4-1.5-3.6-2.2-1.7-1-3.1 1.5-1.5 2.6l5.1 3.6c1.2.9 2.9-.8 2.1-2.1l-3.6-5c-.6.7-1.1 1.5-1.7 2.2 2 .8 3.1 2.6 4.1 4.4.9-.5 1.7-1 2.6-1.5-1.7-2.6-2.9-5.3-3.7-8.3-.8.5-1.7 1-2.5 1.5 1.8 2 3 4.2 3.9 6.7l2.7-1.2c-1.3-2.8-2.5-5.6-2.9-8.7-.9.3-1.9.5-2.8.8 1.4 2.4 2.5 4.8 3.3 7.4l2.7-1.2c-1.2-2.8-2.3-5.6-2.4-8.7-.9.3-1.9.5-2.8.8 1.4 2.7 2.3 5.5 2.8 8.5.3 1.8 2.8 1.2 2.9-.4.3-4.5-1.6-8.6-2.4-13-.7.6-1.5 1.1-2.2 1.7 2.6 1.7 2.5 7.2 2.7 9.8 1-.1 2-.3 2.9-.4l-2.3-12c-.8.5-1.7 1-2.5 1.5 2.6 2.6 3.7 5.9 3 9.5.9-.1 1.8-.2 2.7-.4-.8-1.3-.8-2.7-.2-4-.6.2-1.1.5-1.7.7 1.1.3-.5 4.9-.7 5.1.9.3 1.9.5 2.8.8.1-1.7.4-2.8 1-4.3-.8.2-1.7.4-2.5.7.1.1-2.9 4.3-3.1 4.6-1.1 1.6 1.5 3.1 2.6 1.5 1.6-2.3 5-5.5 2.7-8.3-.8-.9-2.1-.3-2.5.7-.7 1.7-1 3.3-1.1 5.1-.1 1.5 2.2 2.1 2.8.8 1.2-2.4 2.7-8.6-1.1-9.5-.6-.1-1.4.1-1.7.7-1.2 2.2-1.2 5 .2 7 .6 1 2.5 1 2.7-.4.8-4.7-.4-9-3.8-12.5-1.1-1.1-2.8.1-2.5 1.5l2.3 12c.3 1.6 3.1 1.3 2.9-.4-.3-4.2-.3-9.8-4.2-12.4-1.2-.8-2.4.5-2.2 1.7.7 4.1 2.5 8 2.2 12.2 1-.1 2-.3 2.9-.4-.6-3.3-1.6-6.3-3.1-9.2-.7-1.3-2.9-.7-2.8.8.2 3.6 1.4 6.9 2.9 10.2.7 1.6 3.2.4 2.7-1.2-.9-2.9-2-5.6-3.6-8.1-.7-1.2-3-.8-2.8.8.4 3.7 1.7 6.9 3.3 10.2.7 1.5 3.3.4 2.7-1.2-1.1-3-2.6-5.6-4.7-8-1-1.2-2.9.1-2.5 1.5.9 3.2 2.2 6.2 4 9 1 1.6 3.6.2 2.6-1.5-1.5-2.6-3.1-4.6-5.9-5.8-1.2-.5-2.4 1.2-1.7 2.2l3.6 5 2.1-2.1-5.1-3.6c-.5.9-1 1.7-1.5 2.6 1.2.7 2.4 1.5 3.6 2.2 1.2.8 2.9-.8 2.1-2.1a6.57 6.57 0 0 1-1.2-4.7c-.9.4-1.7.7-2.6 1.1 0 .6-.1 1.1-.1 1.7l2.7 1.2 3.1-10.5c.5-1.6-2-2.7-2.7-1.2l-4.4 9.4c.9.3 1.9.5 2.8.8.5-3.9 2.1-7.5 3.8-11 .8-1.7-1.6-3.2-2.6-1.5l-6.9 12.4 2.7 1.2 5.4-13.2c.7-1.6-1.9-2.6-2.7-1.2l-6.4 10.8c.9.5 1.7 1 2.6 1.5l4.4-9.2c.8-1.7-1.6-3.2-2.6-1.5l-6.1 10.2c.9.5 1.7 1 2.6 1.5 1.9-4.3 4.4-8.2 7.7-11.7l-2.4-1.8L851 576l2.7 1.2c1.5-3.9 3.7-7.3 6.6-10.3l-2.4-1.8-7 12.8c-.9 1.7 1.6 3.2 2.6 1.5 1.7-2.9 3.5-5.6 5.6-8.2l-2.4-1.8c-1.7 2.5-2.9 5.1-3.7 7.9 0 1.5 2.9 2.3 3.4.5h0zm-18.7 18.4c1 1.5 1.8 3.2 2.3 4.9.5 1.9 3.4 1.1 2.9-.8-.6-2-1.4-3.9-2.6-5.7-1.1-1.6-3.7-.1-2.6 1.6h0zm39.7 12.7c4.4-5.7 8.9-11.6 14.8-15.8 2.4-1.7 6.4-4.3 9.5-3.7 4 .7 4.8 7.4 5.8 10.6.6 1.8 3.5 1.1 2.9-.8-1.1-3.5-1.8-9.2-4.9-11.6-2.8-2.2-7-1.1-10 .2-8.9 3.7-15.1 12.3-20.8 19.6-1.1 1.5 1.5 3 2.7 1.5h0z"/><path d="M878.9 609.5c7.3-6.8 14.5-11.9 23.6-16.2 1.6-.7.4-3.1-1.2-2.7-9.4 2.4-14.9 10.6-22.6 15.8l2.1 2.1c4-5.6 11.7-15.5 19.2-15.6-.4-.9-.7-1.7-1.1-2.6-2.8 2.8-6.2 4.9-9.5 7-1.6 1-8 6.4-9.8 6 .2.8.4 1.7.7 2.5 6.1-6.3 12.5-12.5 21.5-13.8-.5-.8-1-1.7-1.5-2.5-.6.5-5.2 2.2-3.3.9 1.5-1.1 3.9-1.5 5.7-1.6s2-2.3.4-2.9c-2.9-1.1-5.1.1-7.5 1.8-3.8 2.8-7.4 5.9-11 8.8l2.4 1.8c4.3-6.5 10.7-10.4 18.4-11.5 1.7-.2 1.2-2.9-.4-2.9-5-.1-8.4 3.1-11.8 6.3-4.2 3.9-7.9 8.1-10.3 13.3-.7 1.5 1.1 3.1 2.4 1.8l13.9-13.9-2.4-1.8c-3.6 5.2-7 10.4-9.3 16.3-.6 1.6 1.9 2.5 2.7 1.2l10.7-16.6-2.7-1.2-4.9 14.7c-.5 1.6 2 2.7 2.7 1.2l7.1-14.9-2.7-1.2-2.3 14.4c-.3 1.9 2.4 2.7 2.9.8l2.9-12.3c-1-.1-2-.3-2.9-.4l.3 11.8c0 1.7 2.5 2.1 2.9.4.8-3.2 1.2-6.2 1.3-9.5 0-1.3-1.7-2-2.6-1.1-4.9 5.3-10.8 9-17.7 11-1.6.5-1.3 2.9.4 2.9 1.2 0 2.5.1 3.7.1-.3-.9-.5-1.9-.8-2.8-1.6.8-3.2 1.1-4.9.9-1.9 0-1.9 3 0 3 1.6 0 3.2.1 4.8.1-.1-1-.3-2-.4-2.9l-5.9 1.4c-1.6.4-1.3 3 .4 2.9l6.2-.3c-.1-1-.3-2-.4-2.9-2.5.4-4.5.3-7.1-.1v2.9c3.9-1.2 6.4-3.6 7.6-7.5-1-.1-2-.3-2.9-.4-.1 1.4-.4 2.8-.8 4.2-.5 1.9 2.3 2.6 2.9.8.7-1.9 1.5-3.7 2.5-5.5-.9-.1-1.8-.2-2.7-.4.5 2.3.4 4.2-.2 6.4-.5 1.9 2.4 2.7 2.9.8.3-.9 1.3-4.9 1.7-5-.6-.2-1.1-.5-1.7-.7.3 1.6.2 3.2-.2 4.8-.3 1.9 2.4 2.7 2.9.8.2-1.3.7-2.6 1.5-3.7-.9-.3-1.9-.5-2.8-.8.2 1.7.3 3.4.5 5.1 1-.1 2-.3 2.9-.4v-2.6c.2-1.3-1.4-2.8-2.5-1.5-.7.9-1.4 1.7-2.1 2.6l2.4 1.8c.4-1.4 1.3-2.5 2.6-3.3-.8-.4-1.5-.9-2.3-1.3.1 1.4.1 2.8.2 4.2.1 1.9 2.9 1.9 3 0 0-1.7.6-3.2 1.7-4.4-.9-.1-1.8-.2-2.7-.4.6 1.6.7 3.2.4 4.8 1-.1 2-.3 2.9-.4.2-1.2.4-2.5.7-3.7-.9-.1-1.8-.2-2.7-.4.1 1.2.3 2.4.4 3.6 1 .1 2 .3 2.9.4-.2-1.2-.1-2.4.3-3.5h-2.9c.7 1.4 1 3 .9 4.6h3c-.2-1.9 0-3.5.6-5.2-.9.1-1.8.2-2.7.4.3 1.4.5 2.8.8 4.2h3c0-1.5 0-3 .1-4.4-.9.3-1.9.5-2.8.8.9 1.2 1.2 2.6 1.1 4.1 1-.1 2-.3 2.9-.4 0-.8-.1-1.7-.1-2.5-.9.4-1.7.7-2.6 1.1 1 .7 1.7 1.6 2.3 2.6.9 1.5 3 .5 2.7-1.2-1-5.9-1.8-11.7-2.2-17.7-1 .1-2 .3-2.9.4 2.2 5.8 2.1 12.1 4.6 17.8.7 1.6 3.2.4 2.7-1.2-1.4-5.2-2.6-10.5-3.5-15.8-.7.6-1.5 1.1-2.2 1.7 1.8 1.2 1.9 5.3 2.3 7.1l1.7 8.2c1-.3 1.9-.5 2.9-.8-.4-2-.8-4-1.3-6l-2.7 1.2c1.1 2.5 1.6 4.3 1.7 7.1.9-.3 1.9-.5 2.8-.8-1.9-3.1-2.8-6.1-2.9-9.7l-1.5 1.5c.9 0 1.9 6.3 2 7 1-.3 1.9-.5 2.9-.8a428.82 428.82 0 0 1-3.9-15.3c-.4-1.9-3.3-1.1-2.9.8a428.82 428.82 0 0 0 3.9 15.3c.5 1.9 3.2 1.1 2.9-.8-.5-2.9-.9-9.2-4.9-9.2a1.54 1.54 0 0 0-1.5 1.5c.2 4.1 1.2 7.7 3.3 11.2.7 1.2 2.9.8 2.8-.8a23.25 23.25 0 0 0-2.2-8.6c-.7-1.6-3.1-.4-2.7 1.2.4 2 .8 4 1.3 6 .4 1.9 3.3 1.1 2.9-.8-.9-4.2-1.5-8.6-2.7-12.7-.5-1.9-1-3.2-2.7-4.3-1.2-.8-2.4.5-2.2 1.7.9 5.3 2 10.6 3.5 15.8l2.7-1.2c-2.4-5.4-2.2-11.5-4.3-17.1-.6-1.5-3.1-1.4-2.9.4.4 6.2 1.2 12.3 2.3 18.5l2.7-1.2c-.8-1.3-1.6-2.2-2.7-3.2-1-.9-2.4-.3-2.6 1.1-.1 1.7-.1 1.7.2 3.3.3 1.7 3 1.3 2.9-.4 0-2.1-.5-3.8-1.5-5.6-.7-1.3-2.8-.7-2.8.8s0 3-.1 4.4c0 1.9 3 1.9 3 0 .1-2.2-.3-3.7-1.2-5.7-.6-1.3-2.3-.7-2.7.4-.8 2.1-1 3.8-.7 6 .2 1.9 3 2 3 0s-.3-3.5-1-5.4c-.5-1.3-2.5-1.5-2.9 0s-.5 2.7-.4 4.3 2.7 2.2 2.9.4c.3-1.9.2-3.3-.4-5.2-.4-1.2-2.1-1.5-2.7-.4-1.2 2.1-1.4 3.7-1 6 .3 1.8 2.8 1.2 2.9-.4.2-2.1.1-3.6-.5-5.6-.4-1.4-2-1.3-2.7-.4-1.4 1.9-1.9 3.6-2.1 5.9h3c-.1-1.4-.1-2.8-.2-4.2 0-1-1.3-2-2.3-1.3-1.7 1.2-2.8 2.4-3.6 4.4-.6 1.4 1.2 3.3 2.4 1.8.7-.9 1.4-1.7 2.1-2.6-.8-.5-1.7-1-2.5-1.5-.3 2-.3 2.2 0 4.2.3 1.6 3.1 1.3 2.9-.4s-.3-3.4-.5-5.1c-.1-1.4-2-2.1-2.8-.8-.9 1.4-1.4 2.7-1.8 4.4 1 .3 1.9.5 2.9.8.4-2.4 1-4.9-.1-7.1-.3-.6-1.1-.9-1.7-.7-2.6.7-3.2 5-3.8 7.1 1 .3 1.9.5 2.9.8.8-2.8.8-5.2.2-8-.3-1.3-2.1-1.5-2.7-.4-1.1 2-2 4.1-2.8 6.2 1 .3 1.9.5 2.9.8.4-1.7.7-3.3.9-5s-2.4-1.9-2.9-.4c-.9 2.7-2.8 4.6-5.5 5.4-1.3.4-1.5 2.6 0 2.9 3 .5 5.7.6 8.7.1 1.7-.2 1.3-3-.4-2.9l-6.2.3c.1 1 .3 2 .4 2.9l5.9-1.4c1.7-.4 1.3-2.9-.4-2.9-1.6 0-3.2-.1-4.8-.1v3c2.4 0 4.3-.4 6.5-1.3 1.4-.6.6-2.8-.8-2.8-1.2 0-2.5-.1-3.7-.1.1 1 .3 2 .4 2.9 7.4-2.2 13.8-6.1 19-11.8-.9-.4-1.7-.7-2.6-1.1-.1 3-.4 5.8-1.2 8.7 1 .1 2 .3 2.9.4l-.3-11.8c0-1.6-2.6-2.1-2.9-.4l-2.9 12.3c1 .3 1.9.5 2.9.8l2.3-14.4c.2-1.5-1.9-2.8-2.7-1.2l-7.1 14.9 2.7 1.2 4.9-14.7c.6-1.7-1.9-2.5-2.7-1.2l-10.7 16.6 2.7 1.2c2.2-5.7 5.5-10.6 9-15.6 1-1.4-1.2-3-2.4-1.8l-13.9 13.9 2.4 1.8c3-6.3 11.8-18.3 19.6-18.2-.1-1-.3-2-.4-2.9-8.4 1.2-15.5 5.8-20.2 12.9-1 1.5 1.1 2.8 2.4 1.8 3.1-2.5 11.4-11.5 15.6-9.8.1-1 .3-2 .4-2.9-2.8.2-12.5 2.3-10.5 7 1.7 3.9 8.2.4 10.2-1.2 1.3-1-.2-2.7-1.5-2.5-9.5 1.4-16.4 8-22.9 14.6-.7.8-.5 2.3.7 2.5 3.7.7 7.6-3.4 10.5-5.3 4.1-2.6 8.3-5.1 11.8-8.6.9-.9.3-2.6-1.1-2.6-9 .1-17.1 10.5-21.8 17.1-.9 1.2.8 2.9 2.1 2.1 7.4-5 12.9-13.2 21.9-15.5l-1.2-2.7c-9.3 4.4-16.7 9.7-24.2 16.7-1.6 1.6.6 3.7 2 2.4h0z"/><path d="M899.4 601.4c.8-.4 1.2-1 1.4-1.8.4-1.3-1.1-2.2-2.2-1.7-1.6.8-2.4 2.1-3.3 3.6-1.1 1.9-2.5 3.6-4.1 5.1-1.1 1 0 2.9 1.5 2.5.4-.1.9-.3 1.3-.4 1.5-.5 1.3-3.2-.4-2.9-1.8.2-3.5.6-5.1 1.3-1.8.7-1 3.6.8 2.9 1.4-.5 2.8-1 4.3-1.2l-.4-2.9c-.4.1-.9.3-1.3.4l1.5 2.5c1.3-1.2 2.5-2.6 3.6-4.1 1-1.4 1.6-3.4 3.3-4.2-.7-.6-1.5-1.1-2.2-1.7h-.1c-1.9.9-.3 3.5 1.4 2.6h0zm-22.1 6.6c3.6-9.5 14-19.7 24.2-21.9 14.8-3.1 24.2 15.1 18.2 27.2-.9 1.7 1.7 3.2 2.6 1.5 6.2-12.4-.7-29.5-15-31.7-13.7-2.2-28.4 12.3-32.9 24.1-.7 1.8 2.2 2.6 2.9.8h0zm-75.5-1.9c2.5-6.6 5.4-13.2 10.2-18.4 4.4-4.8 12-10 18.8-7.7 1.8.6 2.6-2.3.8-2.9-6.9-2.3-14.4 1.8-19.4 6.3-6.5 5.8-10.2 13.9-13.2 22-.7 1.7 2.2 2.5 2.8.7h0z"/><path d="M814.2 585.9c4.4-9.7 10.4-18.6 17.1-26.8 6.3-7.7 13.6-18.1 23.1-21.8 1.8-.7 1-3.6-.8-2.9-9.8 3.9-16.8 13.4-23.4 21.3-7.3 8.8-13.9 18.3-18.7 28.7-.7 1.7 1.9 3.3 2.7 1.5h0zm9.8 33.3c26.2-1.2 52.3-1.9 78.5-2.2 1.9 0 1.9-3 0-3-26.2.3-52.4 1-78.5 2.2-2 .1-2 3.1 0 3h0zm114.5-46c-.4-.1-.8-.1-1.2-.2.4.7 1.4.9 2.1.5.9-.5 1.2-.7 1.6-1.7l-2.7-.4 1.2 3.1c.5 1.4 2.4 1.4 2.9 0 .2-.3.4-.5.6-.8l-2.4-.3c.1.6.1 1.3.2 1.9l2.5-.7-1.4-2.4-1.8 1.8 1.9 5.1h2.9c-.5-1.1-.9-2.2-1.2-3.3-.6-.7-.7-.6-.3.3-.5 1.5.5 4.9.4 6.8l2.8-.8c-1-1.7-1.6-3.5-2.2-5.3-.3-.9-2.2-5.7.3-.8 1.6 3.2 1.5 7 1.2 10.5.9-.3 1.9-.5 2.8-.8-.8-1.9-4.4-9-2.5-11.1h-2.1c3.7 3.9 3.6 8.8 3.3 13.8 1-.1 2-.3 2.9-.4-1-2.6-1.8-5.2-2.4-7.8-.3-1.1-.7-2.5-.7-3.6-.1-2.6.9 2 1 2.5 1.1 5.5.3 11.8.1 17.3 1-.1 2-.3 2.9-.4-1.6-4.8-3-9.6-3.2-14.7-1 .1-2 .3-2.9.4 1.4 5.7 1.8 11.3 1.2 17.1-.2 1.9 2.8 1.9 3 0 .8-6.6-.8-13.9-1.4-20.5-.9.3-1.9.5-2.8.8 4.9 7.5 2.1 15.1 2.9 23.2.2 1.9 2.8 1.9 3 0 .9-7.9-1.8-15.5-1.1-23.4-.9.3-1.9.5-2.8.8 4.8 6.6 2.7 15.2 4.3 22.8.3 1.6 3.1 1.3 2.9-.4l-2.9-24.5c-.9.3-1.9.5-2.8.8 3.3 6.2 3.8 13.1 4.2 20h3c-.7-7.1-2.5-13.8-4.4-20.6-.7.6-1.5 1.1-2.2 1.7 4.5 3.3 4.4 11.3 4.5 16.3 0 1.9 3 1.9 3 0-.1-6.4-.4-14.8-6-18.9-1.1-.8-2.5.5-2.2 1.7 1.9 6.5 3.6 13.1 4.3 19.8.2 1.9 3.1 2 3 0-.4-7.5-1-14.8-4.6-21.5-.7-1.2-3-.8-2.8.8l2.9 24.5c1-.1 2-.3 2.9-.4-1.7-7.9.4-16.5-4.6-23.5-.9-1.2-2.7-.8-2.8.8-.7 7.9 2 15.5 1.1 23.4h3c-.8-8.8 1.9-16.8-3.3-24.8-.7-1.1-2.9-.8-2.8.8.6 6.6 2.2 13.9 1.4 20.5h3c.7-6.1.2-12-1.3-17.9-.4-1.6-3-1.3-2.9.4.2 5.4 1.6 10.4 3.3 15.5.5 1.6 2.9 1.3 2.9-.4.1-3.8 2.8-26.5-6-24.6-.5.1-1 .6-1 1-.8 5.1 1.5 11.3 3.2 15.9.6 1.6 2.9 1.4 2.9-.4.3-5.9.1-11.5-4.2-15.9-.5-.6-1.6-.6-2.1 0-3.6 3.9.3 10.7 2 14.8.6 1.5 2.7.5 2.8-.8.3-3.4.4-15.3-5.3-15.6-5.8-.3-.7 10.6.4 12.8.8 1.4 2.7.6 2.8-.8.2-2.7.7-11.4-3.8-11.6-4.9-.2-1.8 6.5-.9 8.6.5 1.2 2.6 1.7 2.9 0 .5-3.7.4-7.9-4-8.8-1.1-.2-2.1.7-1.8 1.8.4 1.6 1 2.6 2.2 3.7.8.7 2.3.5 2.5-.7.4-1.7.2-2.7-.5-4.2-.4-.9-1.7-.9-2.4-.3-.9.8-1 1.1-1.4 2.1h2.9l-1.2-3.1c-.4-1.1-2.1-1.6-2.7-.4-.2.2-.4.4-.5.6.7.2 1.4.4 2.1.5-.8-1.5-2.5-1.7-3.5-.4-1.5 1.7.6 3.8 1.9 2.4h0z"/><path d="M936.6 572.3c11.1 11.6 11.5 29.2 8.5 44.1-.4 1.9 2.5 2.7 2.9.8 3.2-16.1 2.5-34.6-9.3-47-1.3-1.4-3.4.7-2.1 2.1h0z"/><path d="M947.8 599.5c1.5 5.4.8 10.9 0 16.4-.1.9.4 2 1.4 1.9h.3c.7 0 1.2-.5 1.4-1.1 0-.1.1-.2.1-.3.7-1.8-2.2-2.6-2.9-.8 0 .1-.1.2-.1.3.5-.4 1-.7 1.4-1.1h-.3a23.07 23.07 0 0 1 1.4 1.9c.9-6 1.6-12 0-18-.3-1.9-3.2-1.1-2.7.8h0z"/><path d="M949.9 598.2l1.5 18.7c.1 1.4 1.5 1.9 2.6 1.1.1-.1.2-.2.4-.3 1.5-1.2-.6-3.3-2.1-2.1-.1.1-.2.2-.4.3l2.6 1.1-1.5-18.7c-.2-2-3.2-2-3.1-.1h0z"/><path d="M952.7 596c.1 7.2.5 14.4 4 20.9.8 1.6 3.1.5 2.7-1.2l-.6-2.7c-.4-1.9-3.3-1.1-2.9.8l.6 2.7 2.7-1.2c-3.3-6-3.5-12.7-3.6-19.4.1-1.8-2.9-1.9-2.9.1h0z"/><path d="M954 596.7c1.3 7.6 1.9 15.6 5.9 22.4.6-.7 1.1-1.5 1.7-2.2-1.6-.6-3.1-1.1-4.8-1.3-.5-.1-1-.1-1.5-.2-1.5.4-2 0-1.4-1.4-.1-.9.4-2.5.5-3.5.2-2.1.3-4.2.3-6.3-1 .1-2 .3-2.9.4a40.32 40.32 0 0 0 3.9 11.7c.6-.7 1.1-1.5 1.7-2.2l-2.8-1.9-2.1 2.1c.8.4 1.5 1 2.1 1.7 1.3 1.5 3.4-.7 2.1-2.1-.8-.9-1.6-1.6-2.7-2.2-1.2-.7-2.9.8-2.1 2.1 1.2 1.8 2.4 2.7 4.6 3.3 1.3.3 2.3-1 1.7-2.2-1.8-3.5-2.9-7.1-3.6-11-.3-1.7-3-1.3-2.9.4.1 3-.1 6-.7 9-.2 1.1-.8 2.6-.2 3.6.3.7 1.1 1.1 1.8 1.3 2.6.9 5.6.7 8.3 1.7 1.3.5 2.3-1.1 1.7-2.2-3.8-6.5-4.4-14.4-5.6-21.7-.5-2-3.3-1.2-3 .7h0zM826.3 468.4l-4.6 14.1c-.6 1.8 2.3 2.6 2.9.8l3.6-10.5-2.9-.8c-13.9 41.3-22.1 84.3-24.5 127.8-.1 1.9 2.9 1.9 3 0 2.3-43.3 10.5-86 24.4-127 .6-1.8-2.3-2.6-2.9-.8l-3.6 10.5c1 .3 1.9.5 2.9.8l4.6-14.1c.6-1.8-2.3-2.6-2.9-.8h0z"/><path d="M802.2 603.3c3.2-41.8 6.7-84.2 21.2-123.9-1-.3-1.9-.5-2.9-.8-6.3 18.9-10.4 38.3-12.3 58.1-.2 1.9 2.8 1.9 3 0 1.9-19.5 5.9-38.7 12.1-57.3.6-1.8-2.2-2.6-2.9-.8-14.6 40-18 82.6-21.3 124.7 0 2 3 2 3.1 0h0z"/></g><g fill="#666"><path d="M785.9 665.5c4.7-5.1 11.2-13.1 16.1-24.2 9.8-22.1 3.5-34.1 14.2-45.7 8.6-9.3 25.5-15.8 35.4-8.5 8.9 6.6 7.5 21.3 7.3 23.1l-12.7.4c2-8.6-1.3-16.4-6.1-18.2-6.7-2.6-16 6.2-16.7 6.9l-.2.2c-6.1 6-6.3 13.9-8.1 23.1-1.6 8.4-2.3 5.7-5.2 17.7-2.5 10.5-2.3 13.5-4.8 18.8-3 6.1-7.2 10.2-10.4 12.7-2.9-2.2-5.8-4.3-8.8-6.3z" opacity=".47"/><path d="M868.3 594.2c2-3.4 5.7-8.8 12.2-13 9.6-6.2 25.2-10 36.5-2.5 10.5 6.9 12.2 20.4 13.4 29.8 1.9 14.8-2.6 19.2-.8 31 1.2 7.8 5.2 19 18.4 31.4-4.4-1-11.5-3.3-17.2-9.2-8.9-9.4-9.4-22.4-9.6-31-.6-17.6 5.2-21.1 1.3-29.8-4.2-9.2-15.9-16.1-26-14.2-6.6 1.2-11.2 6-14.2 9.2-4.8 5-7.2 10.2-8.4 13.4-1.2.3-2.8.4-3.8-.4-1.3-1.1-.9-3.1-.8-5.9-.1-2.2-.2-5.2-1-8.8z" opacity=".46"/></g><path d="M924.2 809.8l-55.4 44.3-55.4 45.3-174.2 143c3.7 2.9 8.9 7.8 13.1 15.1 7.3 12.6 7.3 24.8 7 30.2 79-60.8 159.1-126.8 239.7-198.4l64.5-58.4c1.6-8.9-1.4-17.9-8.1-23.2-8.6-6.7-21.9-6.2-31.2 2.1zm-158.1-13.3l-59.3 35.7-59.3 36.5-186.7 115.1c4 2.4 9.5 6.3 14 12.2 7.8 10.1 7.9 20 7.6 24.3 84.6-49 170.5-102.1 256.8-159.8l69-47c1.8-7.2-1.5-14.4-8.6-18.7-9.2-5.4-23.6-5-33.5 1.7z" class="R S T U"/><g class="Q"><path d="M659.2 1034.7c8.6 5.1 14.2 13.5 15.8 23.4.3 1.9 3.2 1.1 2.9-.8-1.7-10.6-7.9-19.7-17.1-25.2-1.7-1-3.2 1.6-1.6 2.6h0zm56.2-52.7c13.2 9.1 21.1 24 21.1 40 0 1.9 3 1.9 3 0-.1-17.1-8.5-33-22.6-42.6-1.6-1.1-3.1 1.5-1.5 2.6h0zm20-1.8c7.7 6.4 11.9 15.6 11.5 25.6-.1 1.9 2.9 1.9 3 0 .4-10.8-4.1-20.8-12.4-27.7-1.4-1.3-3.5.8-2.1 2.1h0zm45.2-46.3c11.9 7.9 18.9 21.2 18.9 35.4 0 1.9 3 1.9 3 0 .1-15.3-7.6-29.5-20.4-38-1.6-1-3.1 1.6-1.5 2.6h0zm17.2-6.4c6.6 7.4 10.7 16.2 12.4 26 .3 1.9 3.2 1.1 2.9-.8-1.7-10.3-6.2-19.5-13.1-27.3-1.4-1.5-3.5.6-2.2 2.1h0zm-37.5 23.7c13 6.7 16.8 21.2 19.9 34.4.4 1.9 3.3 1.1 2.9-.8-3.3-13.9-7.6-29.1-21.3-36.1-1.7-1-3.2 1.6-1.5 2.5h0zm100.9-80.8c11.6 6 14.1 19.3 16.1 31.1.3 1.9 3.2 1.1 2.9-.8-2.1-12.6-5.2-26.5-17.5-32.9-1.7-.9-3.2 1.7-1.5 2.6h0zm17.5-10.5c8 7.1 12.1 17.1 11.3 27.8-.1 1.9 2.9 1.9 3 0 .8-11.4-3.6-22.3-12.2-29.9-1.4-1.3-3.5.8-2.1 2.1h0zm17.4-26.5c15.5 6.8 23.6 23.1 19.5 39.6-.5 1.9 2.4 2.7 2.9.8 4.4-17.7-4.1-35.7-20.9-43-1.7-.8-3.2 1.8-1.5 2.6h0zm22.2-9.4c9 7.5 13.2 19.1 10.9 30.6-.4 1.9 2.5 2.7 2.9.8 2.5-12.5-1.9-25.3-11.7-33.5-1.4-1.3-3.6.8-2.1 2.1h0zm15.1-8.7c9 6.7 13.4 17.9 11.6 28.9-.3 1.9 2.6 2.7 2.9.8 2.1-12.5-2.8-24.7-13-32.3-1.5-1.1-3 1.5-1.5 2.6h0zM513.1 953.5c10.8 6.1 14.6 18.5 17.8 29.7.5 1.9 3.4 1.1 2.9-.8-3.4-12-7.7-25-19.2-31.5-1.7-.9-3.2 1.7-1.5 2.6h0zm18.4-6.3c10.1 5.8 12.6 17.4 14.8 27.9.4 1.9 3.3 1.1 2.9-.8-2.3-11.4-5.4-23.5-16.2-29.7-1.7-1-3.2 1.6-1.5 2.6h0zm29.8-20.1c8.4 7.8 13.4 18.2 14.2 29.6.1 1.9 3.1 1.9 3 0-.9-12.2-6.2-23.4-15.1-31.8-1.4-1.3-3.5.9-2.1 2.2h0zm24.4-12.5c7.6 8.9 11.4 20 11.2 31.7 0 1.9 3 1.9 3 0 .3-12.5-4-24.3-12-33.9-1.3-1.4-3.4.7-2.2 2.2h0zm63.5-42.4c12.9 4.3 16.2 18.3 15.2 30.4-.1 1.9 2.9 1.9 3 0 1.1-13.6-3.2-28.6-17.4-33.3-1.8-.6-2.6 2.2-.8 2.9h0zm17-10.9c9.1 5.5 14.7 15 15.2 25.7.1 1.9 3.1 1.9 3 0-.5-11.7-6.6-22.2-16.7-28.3-1.7-1-3.2 1.6-1.5 2.6h0zm-41.8 32.3c7.4 6.5 11.3 15.4 11.1 25.2 0 1.9 3 1.9 3 0 .2-10.6-4-20.4-12-27.4-1.4-1.2-3.5.9-2.1 2.2h0zm81.7-55.6c9.2 8.6 13.7 20.8 12.3 33.3-.2 1.9 2.8 1.9 3 0 1.5-13.3-3.4-26.3-13.1-35.4-1.5-1.3-3.7.8-2.2 2.1h0zm22.6-17.3c12.2 3.2 13.9 17.1 14.6 27.7.1 1.9 3.1 1.9 3 0-.9-12-3.2-27-16.8-30.6-1.8-.5-2.6 2.4-.8 2.9h0zm24.2-8.7c7.3 8.5 10.4 19.6 8.6 30.7-.3 1.9 2.6 2.7 2.9.8 2-12.2-1.3-24.2-9.3-33.6-1.3-1.5-3.4.6-2.2 2.1h0zm22.5-18.9c8.6 3.6 14.1 11.9 14.4 21.2.1 1.9 3.1 1.9 3 0-.3-10.7-6.8-19.9-16.6-24-1.8-.9-2.6 2-.8 2.8h0zm33 113.9a37.23 37.23 0 0 1 17.7 13.1c1.1 1.5 3.7 0 2.6-1.5-5-6.8-11.5-11.7-19.5-14.5-1.8-.6-2.6 2.3-.8 2.9h0zm22.4-15.5c9 3.8 15.5 11.5 17.6 21 .4 1.9 3.3 1.1 2.9-.8-2.3-10.2-9.3-18.7-19-22.8-1.7-.7-3.3 1.8-1.5 2.6h0zm-157.8 125c5.8-.8 11.4 2.2 14.2 7.3.9 1.7 3.5.2 2.6-1.5-3.5-6.4-10.5-9.7-17.6-8.6-1.9.2-1 3.1.8 2.8h0z"/><path d="M607.8 999.5c21.3 13.8 31 32.8 39.9 50.8 13.2 26.7 12.5 40.6 11.8 46.3s-1.7 13.9-8.2 20c-8.3 7.8-21.5 8-29.9 5.4-19.3-5.8-27.2-29.3-36.3-58.1-5.2-16.3-20.9-65.9-6.4-74.4 7.3-4.2 18.9 3.4 29.1 10z" class="R S V"/></g><path d="M610.4 1113.4a369.27 369.27 0 0 0 21.1 3c1.9.2 1.9-2.8 0-3-6.8-.8-13.5-1.8-20.3-2.9-1.9-.4-2.7 2.5-.8 2.9h0zm-3.4-16.9l12.5 1c1.9.2 1.9-2.8 0-3l-12.5-1c-1.9-.1-1.9 2.9 0 3h0zm-4.7-5.7c9.1 1.2 18.2 2.1 27.3 2.6 1.9.1 1.9-2.9 0-3-8.9-.5-17.7-1.3-26.5-2.5-1.9-.3-2.7 2.6-.8 2.9h0zm-3.9-10.7l21.6.9c1.9.1 1.9-2.9 0-3l-21.6-.9c-1.9-.1-1.9 2.9 0 3h0zm-.9-6.4l21.1.7c1.9.1 1.9-2.9 0-3l-21.1-.7c-2-.1-2 2.9 0 3h0zm-4.4-10.2c5.6.3 11.2.3 16.8.2 1.9-.1 1.9-3.1 0-3-5.6.2-11.2.1-16.8-.2-1.9-.1-1.9 2.9 0 3h0zm-4.3-9.6c5.8.7 11.5 1 17.3.7 1.9-.1 1.9-3.1 0-3-5.8.3-11.5.1-17.3-.7-1.9-.3-1.9 2.7 0 3h0zm-5.3-13.3l18.7.8c1.9.1 1.9-2.9 0-3l-18.7-.8c-1.9 0-1.9 3 0 3h0zm-2.3-8.2c7.8.9 15.6 1.2 23.5.7 1.9-.1 1.9-3.1 0-3-7.9.5-15.7.3-23.5-.7-2-.2-1.9 2.8 0 3h0zm-4.4-10.8c7.3.2 14.5.9 21.7 2.1 1.9.3 2.7-2.6.8-2.9-7.5-1.2-14.9-2-22.5-2.2-1.9-.1-1.9 2.9 0 3h0zm-1.6-19.1c10.7-4.5 21.2 9.8 25.9 17.6 5.6 9.2 10 19.3 14.3 29.2 4.7 10.8 9 21.8 12.9 33 3.7 10.6 8.7 22.3 8.1 33.7-.1 1.9 2.9 1.9 3 0 .7-12.6-5-25.5-9.1-37.2-4.3-12.3-9.2-24.3-14.5-36.2-4.8-10.6-9.5-21.7-16.7-30.9-5.4-6.9-15-16.1-24.6-12.1-1.9.7-1.1 3.6.7 2.9h0z" class="T"/><path d="M438 925.8c21.3 13.8 31 32.8 39.9 50.8 13.2 26.7 12.5 40.6 11.8 46.3s-1.7 13.9-8.2 20c-8.3 7.8-21.5 8-29.9 5.4-19.3-5.8-27.2-29.3-36.3-58.1-5.2-16.3-20.9-65.9-6.4-74.4 7.2-4.2 18.9 3.3 29.1 10z" class="Q R S V"/><path d="M440.6 1039.6a369.27 369.27 0 0 0 21.1 3c1.9.2 1.9-2.8 0-3-6.8-.8-13.5-1.8-20.3-2.9-1.9-.3-2.7 2.6-.8 2.9h0zm-3.4-16.8l12.5 1c1.9.2 1.9-2.8 0-3l-12.5-1c-1.9-.2-1.9 2.8 0 3h0zm-4.7-5.8c9.1 1.2 18.2 2.1 27.3 2.6 1.9.1 1.9-2.9 0-3-8.9-.5-17.7-1.3-26.5-2.5-1.9-.2-2.8 2.7-.8 2.9h0zm-3.9-10.7l21.6.9c1.9.1 1.9-2.9 0-3l-21.6-.9c-2-.1-2 2.9 0 3h0zm-1-6.4l21.1.7c1.9.1 1.9-2.9 0-3l-21.1-.7c-1.9-.1-1.9 2.9 0 3h0zm-4.3-10.2c5.6.3 11.2.3 16.8.2 1.9-.1 1.9-3.1 0-3-5.6.2-11.2.1-16.8-.2-1.9-.1-1.9 2.9 0 3h0zm-4.4-9.6c5.8.7 11.5 1 17.3.7 1.9-.1 1.9-3.1 0-3-5.8.3-11.5.1-17.3-.7-1.9-.2-1.8 2.8 0 3h0zm-5.2-13.2l18.7.8c1.9.1 1.9-2.9 0-3l-18.7-.8c-1.9-.1-1.9 2.9 0 3h0zm-2.4-8.3c7.8.9 15.6 1.2 23.5.7 1.9-.1 1.9-3.1 0-3-7.9.5-15.7.3-23.5-.7-1.9-.2-1.9 2.8 0 3h0zm-4.3-10.8c7.3.2 14.5.9 21.7 2.1 1.9.3 2.7-2.6.8-2.9-7.5-1.2-14.9-2-22.5-2.2-1.9 0-1.9 3 0 3h0zm-1.7-19.1c10.7-4.5 21.2 9.8 25.9 17.6 5.6 9.2 10 19.3 14.3 29.2 4.7 10.8 9 21.8 12.9 33 3.7 10.6 8.7 22.3 8.1 33.7-.1 1.9 2.9 1.9 3 0 .7-12.6-5-25.5-9.1-37.2-4.3-12.3-9.2-24.3-14.5-36.2-4.8-10.6-9.5-21.7-16.7-30.9-5.4-6.9-15-16.1-24.6-12.1-1.8.7-1 3.7.7 2.9h0z" class="T"/><g fill="#666"><path d="M805.5 799.4L485.2 998.2c1.5 2.4 3.2 5.7 4.3 9.7 1.1 4.2 1.2 7.8 1.1 10.5 53.6-32.2 108.3-66.2 163.8-102.2C708.7 881 760.5 846 809.7 811.5l-4.2-12.1zm154.3 15.5l-304.2 247.6c1.4 3 3 7.1 4 12.1 1.1 5.2 1.2 9.7 1 13.1 50.9-40.1 102.9-82.5 155.7-127.4C867.9 916.5 917.1 873 963.9 830l-4.1-15.1z" opacity=".4"/><path d="M966.7 826.8l-311.2 243.7c1.1 2.5 2.3 5.5 3.3 8.9.8 3 1.3 5.7 1.6 8.1 51.3-40.3 103.7-83.1 156.8-128.4 52.3-44.5 102.1-88.7 149.5-132.3zM805 806.5l-148.7 95.1-103.2 65-65 39.8c.6.2 2.3.8 3.3 2.4 1.2 2.1.6 5.2-1.6 7.3 54.4-32.1 110-66.2 166.6-102.4 51.8-33.1 101.6-66.2 149.5-99.1a111.42 111.42 0 0 1-.9-8.1z" opacity=".4"/></g><path d="M1078.2 481.4c6.1-8.3 16.9-16.8 24-14.1 9.2 3.4 8.3 24.1 9.2 47.9 1.1 29.6 7.4 58.7 10.6 88.1 6.1 56.2 16.3 99.7 21.1 119.8 6.6 27.6 17.1 65.5 33.8 109.9-1 2.8-3.4 8-8.5 12.7-2.8 2.6-8.3 6.8-12 7-12.8.9-26.1-44.5-30.3-59.2-24.2-84.3-34.9-145.1-35.9-150.8-7.8-44.6-3.1-26-9.9-65.5-9.3-53.9-15.9-76.9-2.1-95.8z" class="R S T U"/><g class="Q"><path d="M1083.7 572.2c6.7-7.5 16.8-10.4 26.4-7.4 1.8.6 2.6-2.3.8-2.9-10.5-3.3-22-.1-29.3 8.2-1.3 1.4.8 3.5 2.1 2.1h0zm8.7 73.6c6.1-7.5 15.3-11 24.8-9.2 1.9.4 2.7-2.5.8-2.9-10.5-2-21 1.7-27.7 10-1.2 1.5.9 3.6 2.1 2.1h0zm-5-26.1c6.1-10.8 19.1-14.4 29.9-8.4 1.7.9 3.2-1.7 1.5-2.6-12.3-6.8-27-2.7-34 9.5-.9 1.7 1.7 3.2 2.6 1.5h0zm16.5 85.6c7.2-7.8 17.7-15.4 28.5-9.6 1.7.9 3.2-1.7 1.5-2.6-12-6.5-23.9 1.2-32.1 10-1.4 1.5.8 3.6 2.1 2.2h0zm-5.3-31.4c7.2-10.4 20.7-12.5 30.9-5.1 1.6 1.1 3.1-1.5 1.5-2.6-11.6-8.4-27-5.5-35 6.2-1.1 1.6 1.5 3.1 2.6 1.5h0zm18.7 81.4c3.3-12 16.5-17.1 27.1-10.6 1.6 1 3.2-1.6 1.5-2.6-12.3-7.6-27.7-1.5-31.6 12.4-.4 1.9 2.5 2.7 3 .8h0zm8.6 29.1c5.5-8.4 15.7-12.2 25.3-9.5 1.9.5 2.7-2.4.8-2.9-10.9-3-22.5 1.4-28.7 10.9-1.1 1.7 1.5 3.2 2.6 1.5h0zm6.5 25.5c7.6-6.7 19.4-14.7 28.8-6.2 1.4 1.3 3.6-.8 2.1-2.1-10.7-9.7-24.1-1.6-33 6.2-1.4 1.2.7 3.4 2.1 2.1h0z"/><path d="M1148 825.6c4.5-7.6 14.2-9.5 21.2-4.1 1.5 1.2 3-1.4 1.5-2.6-8.3-6.4-20-3.7-25.3 5.2-.9 1.6 1.7 3.1 2.6 1.5h0zm-72.9-296.2c6.2-9.8 18.8-13.7 29.5-9.5 1.8.7 2.6-2.2.8-2.9-12-4.8-26-.1-32.9 10.8-1 1.7 1.6 3.2 2.6 1.6h0zm-2.4-30.7c3.8-5 8.1-10.4 14.7-11.4 6.1-1 11.9 1.8 16.8 5.3 1.6 1.1 3.1-1.5 1.5-2.6-5.6-4.1-12.6-7-19.7-5.5s-11.8 7.3-15.9 12.8c-1.2 1.4 1.5 2.9 2.6 1.4h0zm4.3 58.3c5.4-10 17.5-14.4 28.1-10.4 1.8.7 2.6-2.2.8-2.9-11.8-4.4-25.5.7-31.5 11.8-1 1.7 1.6 3.2 2.6 1.5h0zm7.2 39.9c6.9-9.1 18.6-13.1 29.7-10.3 1.9.5 2.7-2.4.8-2.9-12.4-3.2-25.3 1.5-33.1 11.7-1.2 1.5 1.4 3 2.6 1.5h0zm29.5 127.6c6.5-9.9 19-7.8 28-3.1 1.7.9 3.2-1.7 1.5-2.6-10.6-5.5-24.7-7.1-32.2 4.2-1 1.6 1.6 3.1 2.7 1.5h0z"/></g><path d="M1152.6 851.8c.4 9.6 2.3 25.1 10.2 42.2 9 19.7 21.7 32.3 29.3 38.8l2-33.4c5.4 4.9 13.7 11.5 25.2 17 12.7 6.1 30.6 11.6 32.5 8.2 1.1-2.1-3.1-8.1-28.4-26.6 6.1 4 19.5 11.5 37.4 11.6 7.8 0 14.5-1.4 19.5-2.9-.2-3.2-1-7.9-3.8-12.7-2.4-4.2-5.3-6.6-10.9-10.9l-17.7-13.6c18.3 2.5 27.6 2.8 28 1 .8-3.5-32.6-15.2-100.2-35.1-1.3 2.4-4.1 7.1-9.5 10.9-5.5 4-10.9 5.1-13.6 5.5z" class="R S T U"/><path d="M1235.7 882.8l42.7 24.1c1.7.9 3.2-1.6 1.5-2.6l-42.7-24.1c-1.7-1-3.2 1.6-1.5 2.6h0z" class="Q"/><g fill="#666"><path d="M1086.8 472c.7 10 2 26.2 4.1 46.1 3.8 34.4 13.9 113.3 67.4 303.4l21.3 73.6c1.4-4.7 3.8-10.7 8.3-11.7 6.3-1.4 12.8 8.1 19.3 15.1 7.7 8.4 20.7 19.1 43.3 26.8-6.2-.2-14.3-1.1-23.4-4.1-17.1-5.8-28.2-16-33.7-22V935c-7.1-5.4-18-15.1-26.8-30.3-2.8-4.7-10-17.9-13.1-36.5-.9-5.6-1.3-10.3-1.4-13.8-1.6-1.9-3.8-4.7-6.2-8.3-7-10.5-10.1-19.8-12.4-26.8-6.8-21.2-11.9-40.2-14.4-50.2-11.4-42-22.1-88-31-137.6-7.8-43.4-13.3-84.6-17.2-123.2 0-5.2.8-15.2 6.9-25.5a55.59 55.59 0 0 1 9-10.8zm138.3 427.2c-.5-3.9-.5-8.6 2.1-10.3 3.5-2.2 9.3 2.7 18.6 7.6 17.8 9.5 31.3 9.9 31 11.7s-12.6 1.7-23.4 0c-12.3-2-21.9-5.9-28.3-9z" opacity=".48"/><path d="M1082.4 480c-1.2 41.3 1.3 75.1 3.8 98.5 6.6 60.6 23.2 115.5 56.3 225.2 5.8 19.3 15.3 37.3 22.4 65.7 1.4 5.7 3.2 13.5 7.1 24.1 6.5 17.6 14.6 30.9 20.4 39.5-7.2-5.8-17.6-15.5-26.2-30.1-12.1-20.7-14.4-40.5-14.8-50.8-2.5-4-5.8-9.6-9.4-16.5.5 2.9 1 6.1.4 6.2-1.6.4-10.9-27.6-13.8-36.6-7.9-23.7-19-61.3-31.7-118.2l-16.6-107-11.1-82.1c1.2-3.1 3.2-7.3 6.7-11.6 2.4-2.7 4.6-4.7 6.5-6.3z" opacity=".5"/></g><g class="Q R S V"><path d="M1070.4 232.3l47.6 50.1-19.7 113.3-53.3-25.4 25.4-138z"/><path d="M841.8 375.5l32.1 23.9 223.4-1.8-15.8-56.2-239.7 34.1z"/></g><path d="M864.9 244.4c-6.6 21.6-12.7 46.2-17.4 73.4a603.42 603.42 0 0 0-7 57.6c18.9 4.1 40.2 7.4 63.6 8.9 56.7 3.7 105-4.5 140.5-13.9 8.2-20.8 16.6-47.5 21.4-79.2 3.3-21.9 4.3-41.8 4-59-8.5-1.1-20.4-2.5-34.7-3.5-56.8-4-99 1.6-108.7 2.9-16.1 2.4-37.2 6.1-61.7 12.8z" class="R S T V"/><g class="Q"><path d="M877.8 261.3c9.7 8 17 18.1 21.3 29.9.7 1.8 3.6 1 2.9-.8-4.5-12.3-12-22.9-22.1-31.2-1.5-1.3-3.6.8-2.1 2.1h0z"/><path d="M875.6 295c8.4-14.2 19.1-26.8 31.8-37.3 1.5-1.2-.6-3.3-2.1-2.1a144.86 144.86 0 0 0-32.3 37.9c-1 1.7 1.6 3.2 2.6 1.5h0zm134.2-46.3c11.1 12.2 19.1 26.5 23.9 42.3.6 1.8 3.5 1.1 2.9-.8-4.9-16.3-13.3-31-24.7-43.6-1.3-1.4-3.4.7-2.1 2.1h0z"/><path d="M1011.6 286.2c9.5-15 21.8-27.8 36.5-37.8 1.6-1.1.1-3.7-1.5-2.6-15.1 10.3-27.8 23.5-37.6 38.9-1 1.6 1.6 3.1 2.6 1.5h0zm-137.8 30.9c.2 5.4-5.2 9.4-4.2 15 .6 3.8 3.9 6.2 7.5 7.1 4 .9 9.6.2 13-2.2 4.8-3.4 7.4-10.7 9.7-15.8.8-1.7-1.8-3.3-2.6-1.5-6.1 12.9-10.8 26.3-13.8 40.3-.4 1.9 2.5 2.7 2.9.8 3-13.7 7.5-26.9 13.5-39.5-.9-.5-1.7-1-2.6-1.5-3.7 8.3-8.3 19.1-19.3 16.7-10.7-2.3-.9-12.8-1.1-19.1-.1-2.2-3.1-2.2-3-.3h0zm59.3 41.9c-7.3-8.3-6.5-19.9-1.9-29.3 4-8.4 16.5-22 25.3-10.4 5.6 7.5 2.4 21.3-.7 29.4-3.9 10.1-16.5 17.6-24.7 6.9-1.2-1.5-3.8 0-2.6 1.5 7.1 9.2 19.5 8.3 26.4-.6 4.5-5.8 5.8-13.3 6.8-20.4.9-6.3 1.3-13.3-2.8-18.7-8.6-11.6-22.8-2.1-28.3 7.1-6.8 11.3-8.9 26 .4 36.6 1.2 1.5 3.3-.6 2.1-2.1h0zm68.4-53.8l-3.5 13.1c-.7 2.8-2.4 6.5-1.9 9.4.7 4.3 5.8 6.5 9.7 6.7 12.5.6 18.4-11.8 19.7-22.4.2-1.5-2.2-2.1-2.8-.8-6.6 14.4-10.7 29.4-12.5 45.1-.2 1.9 2.8 1.9 3 0 1.7-15.1 5.8-29.8 12.1-43.6-.9-.3-1.9-.5-2.8-.8-1.1 8.5-5.3 18.9-15.3 19.4-1.8.1-4.3-.2-5.8-1.4-3.7-2.8-1.4-7.7-.5-11l3.5-13.1c.5-1.7-2.4-2.5-2.9-.6h0zM939 230c.6-1.3.6-2.4 1.1-3.7 1.3-3.8 4.7-4.1 8.1-3.9 4.2.2 8.3.7 12.5.6 4.3-.2 8.5-.8 12.7-1.1 1-.1 2-.2 3-.2 2.4.2 3.5 1.2 3.1 2.9.5.9.2 1.6.8 2.5 1 1.6 3.6.1 2.6-1.5-.9-1.5-.1-3.3-1.2-4.8-.8-1.1-2-1.6-3.2-1.9-5.5-1.3-12.3.9-17.8 1.2-6 .2-12.3-1.5-18.2-.5-5.6 1-4.2 4.8-6.1 9-.8 1.7 1.8 3.2 2.6 1.4h0z"/><path d="M940.5 228.5l36.6-2.8-.4-2.9c-7.2 1-14.5 2.6-21.8 2.3-5.3-.2-10.3-2-15.3.7.7.3 1.5.6 2.2.9 0-.9.1-1.7.1-2.6h-2.6c.1.4.1.8.2 1.2 0 1.5 2.1 2.1 2.8.8.4-.4.8-.7 1.2-1.1a23.07 23.07 0 0 0-1.9-1.4l-1.2 2.1 1.8 2.4c.3-.3.7-.5 1-.8a23.07 23.07 0 0 0-1.9-1.4c-.2-2.1 33.4-2.3 36.6-2.4l-1.5-1.5c0 1.5 0 2.9-.1 4.4.8-.4 1.5-.9 2.3-1.3-4.2-2.4-8.7-3.8-13.5-3.7-6 .1-12.2 3.5-17.7 0-.3.9-.5 1.9-.8 2.8 3.7 0 7.3.5 10.9 1.3.1-1 .3-2 .4-2.9-6.5.2-12.5 1.8-18.3 4.6-1.2.6-.8 2.4.4 2.7 8.8 3 18.9-1 27.9-1.1 2.6 0 15.4 1.6 11.4-5-1-1.6-3.6-.1-2.6 1.5.2.3-7.8.5-8.8.5-3.2 0-6.5.3-9.7.7-5.8.7-11.6 2.5-17.4.5.1.9.2 1.8.4 2.7a40.87 40.87 0 0 1 16.8-4.2c1.6-.1 2.1-2.6.4-2.9-3.9-.9-7.7-1.3-11.7-1.4-1.5 0-2 2-.8 2.8 3.6 2.3 7.4 2.3 11.6 1.6 7.2-1.2 13.1-1.5 19.7 2.2 1 .6 2.2-.2 2.3-1.3 0-1.5 0-2.9.1-4.4a1.54 1.54 0 0 0-1.5-1.5l-22.2.6c-4.1.1-12.3-1.3-15.8 1.7-6 5.1 4.9 9.4 4.3 3.2-.1-.9-.9-1.8-1.9-1.4-1.2.5-1.5.6-2.3 1.5-1.1 1.3.3 3.1 1.8 2.4 2-.9 2.9-2.5 2.7-4.7-.1-.9-.9-1.8-1.9-1.4-1.5.5-2.2 1.1-3 2.5.9.3 1.9.5 2.8.8 0-1.2-.1-1.6-.6-2.7s-2.1-.9-2.6 0c-1 1.8-1.2 3-.4 4.9.4.9 1.3 1.4 2.2.9 5.1-2.8 13.5 0 19.2-.4s11.5-1.4 17.2-2.2c1.7-.2 1.3-3.1-.4-2.9l-36.6 2.8c-2-.5-2 2.5-.1 2.3h0z"/><path d="M951.8 220.4c-.7-2.6 18.6-3.4 20.5-3.5l-1.5-1.5v3.9c.8-.4 1.5-.9 2.3-1.3-2.4-1.4-4.9-2.3-7.7-2.3-3.3 0-7.8 2.9-10.8 1.5-.1.9-.2 1.8-.4 2.7 3.9-.8 7.6-1.4 11.5-1-.1-1-.3-2-.4-2.9l-13.3 2.4c-1.7.3-1.3 3 .4 2.9a111.53 111.53 0 0 0 16.2-1.8c1.7-.3 1.3-3-.4-2.9-2.1.1-4.3.2-6.4.2.1 1 .3 2 .4 2.9 2.5-.8 4.8-1.1 7.5-1-.3-.9-.5-1.9-.8-2.8-1 .3-2 .5-3 .8-.1 1-.3 2-.4 2.9a18.3 18.3 0 0 0 4.7-.3c1.9-.3 1.1-3.2-.8-2.9-1.3.3-2.6.4-3.9.2-1.7-.1-2.1 2.7-.4 2.9 2.1.4 3.6.1 5.3-1.1 1.2-.9.8-2.7-.8-2.8-2.9-.1-5.5.3-8.3 1.2-1.6.5-1.4 3 .4 2.9 2.1-.1 4.3-.2 6.4-.2-.1-1-.3-2-.4-2.9-5.1 1-10.2 1.6-15.4 1.7.1 1 .3 2 .4 2.9l13.3-2.4c1.8-.3 1.2-2.8-.4-2.9-4.2-.4-8.2.3-12.3 1.1-1.2.3-1.5 2.2-.4 2.7 2.2 1 4 1 6.4.3 4.5-1.3 7.9-2 12.2.5 1 .6 2.2-.2 2.3-1.3v-3.9c0-.8-.7-1.6-1.5-1.5-6.2.5-12.7.6-18.9 1.6-3.2.5-5.4 2.4-4.6 5.7.6 2 3.5 1.2 3-.7h0z"/><path d="M951.5 219.8l.1-3.8-1.5 1.5 15.9-1.3c.2 0 6.3-.7 5.4.9-.9 1.7 1.7 3.2 2.6 1.5 4.8-9.4-20.7-4.4-24-4.1-.8.1-1.5.6-1.5 1.5 0 1.3-.1 2.5-.1 3.8.1 1.9 3.1 1.9 3.1 0h0zm10-23.4c.1-.1.3-.2.4-.1h0l-.2-.1c-.1-.2-.2-.4-.2-.6 0-.6.9-1.2 1.5-1.2.9 0 1.6 1.7.4 1.8-.2 0-.4-.1-.6-.2s-.1-.4-.2-.1c.1-.2.6-.4.6-.5-.1-.1-.1-.3-.2-.4v.1l-.2.3-.1.1.5.3.1-.5c.1-.2.2-.3.5-.3h-.8c.5.1.9.9.6 1.4-.3.4-1.3.2-1.4-.3-.6-1.8-3.5-1-2.9.8.8 2.2 3.5 3.4 5.6 2.2s2.3-4.1.8-5.9c-.8-.9-2-1.4-3.2-.9-1 .4-1.8 1.4-2.1 2.4-.3 1.1-.1 2.5.8 3.3 1 .9 2.7.5 3.6-.3 2-1.7 1.5-5.2-1.4-5.2-2.4 0-4.5 2.5-3.3 4.8 1 2.1 4 2.6 5.8 1.1 2-1.7 1.4-4.9-.6-6.3-2.5-1.7-6 .1-6.6 2.9-.3 1.3.3 2.7 1.2 3.6 1.2 1 2.6 1 3.8.1.6-.5.5-1.6 0-2.1-.7-.9-1.6-.7-2.2-.2h0zm-24.1 13.1l7.8-4.5c1.7-1 .2-3.6-1.5-2.6l-7.8 4.5c-1.6 1-.1 3.6 1.5 2.6h0zm-2-16.8h5.6c1.9 0 1.9-3 0-3h-5.6c-1.9 0-1.9 3 0 3h0zm18.3-10.9l-2.8-6.7c-.7-1.8-3.6-1-2.9.8l2.8 6.7c.8 1.8 3.7 1 2.9-.8h0zm15.8-3.6l1.7-9c.4-1.9-2.5-2.7-2.9-.8l-1.7 9c-.4 1.8 2.5 2.7 2.9.8h0zm9.3 7.6l6-4.1c1.6-1.1.1-3.7-1.5-2.6l-6 4.1c-1.6 1.1-.1 3.7 1.5 2.6h0zm5.2 10.7l5.6 3.3c1.7 1 3.2-1.6 1.5-2.6l-5.6-3.3c-1.7-1-3.2 1.6-1.5 2.6h0zM869.5 255c-11.6 33.3-15.6 68.4-19.5 103.3-.2 1.9 2.8 1.9 3 0 3.8-34.6 7.8-69.4 19.4-102.5.6-1.9-2.3-2.6-2.9-.8h0zm187-9.3c-4.9 37.4-13.3 74.3-25.1 110.2-.6 1.8 2.3 2.6 2.9.8 11.8-36.2 20.2-73.3 25.2-111 .2-1.9-2.8-1.9-3 0h0z"/><path d="M872.5 255.3a564.41 564.41 0 0 1 93.1-15c15.3-1.2 30.6-1.7 45.9-1.6a441.36 441.36 0 0 1 23 .6c7.5.4 14.9.9 21.2 5.4 1.6 1.1 3.1-1.5 1.5-2.6-11.2-7.9-28-6.1-40.9-6.3-16.3-.2-32.6.2-48.8 1.4-32.3 2.3-64.3 7.5-95.8 15.3-1.8.4-1 3.3.8 2.8h0zm-22 106.7c24 17.5 56.4 13.5 84.2 12.2 17.5-.8 35-1.9 52.4-3.9 14.8-1.8 31.4-2.9 44.4-10.9 1.6-1 .1-3.6-1.5-2.6-13.5 8.3-31.4 9.2-46.8 10.9-16.1 1.8-32.3 2.7-48.5 3.5-27.3 1.3-59.2 5.3-82.7-11.8-1.6-1.1-3.1 1.5-1.5 2.6h0zm187.3 2.6c-2.1-1.6-.2-5.2 2.3-4.1 3 1.3 1 5.3-1.8 4.4-1.8-.6-2.6 2.3-.8 2.9 2.8.9 5.8-.7 6.9-3.4s-.5-5.6-3-6.7c-2.6-1.1-5.6-.2-6.8 2.4-1.2 2.5-.4 5.4 1.7 7.1 1.5 1.2 3-1.4 1.5-2.6h0zM875.7 319l2.7.7c-.4-.5-.7-1-1.1-1.4.4 5.1-4.9 9.2-2.4 14.5 1.8 3.9 6.4 5.8 10.4 4.4 1.8-.6 1-3.5-.8-2.9-4.8 1.7-8.3-2.9-6.7-7.3 1.1-3 2.8-5.4 2.5-8.8-.1-.7-.4-1.3-1.1-1.4-.9-.2-1.8-.5-2.7-.7-1.9-.5-2.6 2.4-.8 2.9h0z"/><path d="M876.5 319.5c-1.6 4.3-5.6 11.1-2.3 15.6 2.4 3.2 7 2.9 10.5 2.3 1.9-.3 1.1-3.2-.8-2.9-3 .5-8.2.8-7.9-3.7.2-3.5 2.3-7.2 3.5-10.4.6-1.9-2.3-2.7-3-.9h0z"/><path d="M875.9 318.3c-4.7 6.6-6.7 17.1 4.1 18.1 10.1 1 16.4-8.1 19.4-16.5.7-1.8-2.2-2.6-2.9-.8-5 13.6-10.5 27.2-13.7 41.4-.4 1.9 2.5 2.7 2.9.8 3.2-14.2 8.7-27.8 13.7-41.4-1-.3-1.9-.5-2.9-.8-2.1 5.8-5.5 12-11.9 13.8-4.6 1.4-9.3.1-9.6-5.6-.1-2.5 2.1-5.6 3.5-7.6 1.1-1.4-1.5-2.9-2.6-1.4h0z"/><path d="M897.8 319.4c.8 2.3-2.4 7.6-3.2 10l-11.1 31.5c-.6 1.8 2.3 2.6 2.9.8l12.4-35.2c.8-2.2 2.7-5.4 1.9-7.8-.6-1.9-3.5-1.1-2.9.7h0z"/><path d="M897.6 321.5c.5 6.4-3.8 13.7-6 19.6l-7.4 19.4c-.7 1.8 2.2 2.6 2.9.8l8.1-21.3c2.2-5.8 5.9-12.2 5.4-18.5-.1-1.9-3.1-1.9-3 0h0zm34.5 32c-4.8-8.7-1.8-18.5 3.9-26 2.3-3 5.1-6.8 8.5-8.6 6.9-3.8 11.8 3.4 12.6 9.4 1.2 8.8-1.4 18.4-6.3 25.7-3.2 4.7-10.3 6.3-15.6 3.6-3.8-2-5.2-6.6-5.5-10.6-.7-8.4 1.9-18.3 8.2-24.2 3.3-3.2 8.6-6.1 13.3-4.9 7.1 1.9 6.1 10.8 5.2 16.5-1.2 7.9-2.9 18.5-10.8 22.5-5.1 2.5-10.6 0-13.3-4.6-2.6-4.5-2.2-10-.7-14.8 1.4-4.5 3.7-8.9 7-12.4 4.3-4.5 12.7-8.5 16.6-1.3 2.5 4.7.5 11.2-.6 16-1.2 5.3-2.8 10.2-6.5 14.3-1.3 1.4.8 3.6 2.1 2.1 4.4-4.9 6.3-10.9 7.6-17.2 1.2-5.7 2.8-12.5-.6-17.8-7-11-20.5-.3-25 7.3-5.4 9.2-8.3 24.1 2.6 30.7 11.5 6.9 20.2-6.2 22.7-15.8 2.2-8.7 6.3-28.7-8.1-28.8-13.1-.2-20.9 13.5-22.5 24.8-1.4 10.3 1.2 22.2 13.6 22.4 6.2.1 9.7-1.6 13.1-6.9a41.38 41.38 0 0 0 6.4-18.6c.6-6.3.1-14-4.9-18.5-4.2-3.8-9.6-3.6-13.9-.2-11 8.5-19 24.4-11.8 37.6 1 1.5 3.6 0 2.7-1.7h0z"/><path d="M948.7 354l-2.2 2.1c-.6.6-.6 1.6 0 2.1.6.6 1.5.6 2.1 0l2.2-2.1c.6-.6.6-1.6 0-2.1-.6-.6-1.5-.6-2.1 0h0z"/><path d="M950.7 356c.3-.3.7-.6 1-1 1.2-1.1-.4-3.4-1.8-2.4-2.3 1.7-4.4 3.5-6.2 5.6-1.3 1.4.8 3.6 2.1 2.1 1.7-1.9 3.6-3.6 5.6-5.1l-1.8-2.4c-.3.3-.7.6-1 1-1.4 1.4.7 3.5 2.1 2.2h0zm51.9-48.3c2.5-.7 0 7.4-.1 8-.4 1.7-.7 3.4-.8 5.1-.1 2.7.6 5.4 2.2 7.6 3.7 5.1 9.1 3.7 13.9.9 1.7-1 .2-3.6-1.5-2.6-3.3 2-7.4 3.6-10.1-.4-1.1-1.6-1.5-3.7-1.4-5.6.1-3.7 1.9-6.9 2.2-10.5.3-3.3-1.4-6.6-5.2-5.5-1.8.6-1 3.5.8 3h0z"/><path d="M1001.8 306.8l-2.4 10.9c-.6 2.7-1.5 5.8-.9 8.5.3 1.6 1.1 3.1 2.4 4.2 1.7 1.4 3.6.8 5.4 1.8l1.5-2.6c-6.6-3.3-5.5-11.1-4-17.1-1-.3-1.9-.5-2.9-.8-1.3 7-1.9 18.9 7.9 20 3.4.4 6.1-1.6 8-4.3 3.4-4.8 5.6-11 8.2-16.3l-2.7-1.2c-4.3 15.6-8 31.4-11 47.3-.4 1.9 2.5 2.7 2.9.8 3-15.9 6.7-31.7 11-47.3.4-1.6-2-2.7-2.7-1.2-2.4 5-4.5 10.3-7.4 15.1-2.5 4.1-7.3 5.1-10.4.9-2.7-3.7-1.6-9-.8-13.1.4-1.9-2.4-2.7-2.9-.8-1.7 7.4-2.5 16.5 5.4 20.5 1.7.9 3.2-1.6 1.5-2.6-.7-.4-2.2-.5-2.7-.8-3.4-2.3-3.8-4.9-3.1-8.5.8-4.2 1.9-8.5 2.8-12.7.2-1.7-2.7-2.5-3.1-.7h0zm125.3-235.3c-2.5-5.3-9.4-3.8-12.3.2-2.4 3.4-3.3 8-4.5 11.9l-5.5 17.8c-.4 1.2.8 2 1.8 1.8 7.1-1.1 14.2-1.4 21.4-.8.7.1 1.6-.7 1.5-1.5-.6-5.3 1-9.9 4.7-13.7 1.4-1.4-.8-3.5-2.1-2.1-4.3 4.3-6.3 9.8-5.6 15.8l1.5-1.5c-7.4-.6-14.8-.3-22.2.9l1.8 1.8 5.5-17.8c.7-2.4 1.4-4.9 2.3-7.3 1-2.7 6.2-10.3 9-4.1.9 1.9 3.5.4 2.7-1.4h0zm-63.6 136.3l.1-5.2c0-1.1-.3-4.2.1-5.2 1.7-3.8 7 1.1 9.2 2.5.7.4 1.6.2 2.1-.5 1.7-2.9 2.7-5.9 4.1-8.9 1.7-3.6 4.2-6.5 6.7-9.5 4.6-5.6 9.2-11.6 16.4-13.6 1.9-.5 1.1-3.4-.8-2.9-7.3 2-12.1 7.5-16.8 13.2-2.2 2.7-4.7 5.4-6.6 8.4-2.3 3.7-3.4 8-5.6 11.8.7-.2 1.4-.4 2.1-.5-2.7-1.7-8.7-7.4-12.1-4.4-3.3 2.8-1.7 11.3-1.8 15-.2 1.7 2.8 1.7 2.9-.2h0zm24.6-5.6c-1.8-6.6 2.8-11.4 8.9-12.4 4.1-.7 7.3-3.6 10.8-5.7 9.3-5.6 19.4-9.8 29.8-12.7 1.9-.5 1.1-3.4-.8-2.9a117.4 117.4 0 0 0-18.3 6.6c-6.4 2.9-12.1 6.7-18.1 10.2-4.9 2.8-9.7 1.7-13.3 6.7-2.4 3.3-3 7.1-2 11 .6 1.8 3.5 1 3-.8h0z"/></g><g class="W"><ellipse cx="682.6" cy="220.2" rx="25" ry="25.5"/><ellipse cx="711.7" cy="275.2" rx="8.5" ry="10.2"/></g><g fill="#ec615b"><circle cx="674.8" cy="249.3" r="20.2"/><circle cx="732.1" cy="255.6" r="11.7"/><circle cx="1277.7" cy="684.9" r="17.7"/><ellipse cx="1304.3" cy="726.2" rx="11.2" ry="10.3"/></g><g class="W"><ellipse cx="1317.1" cy="677.3" rx="17.6" ry="18.4"/><ellipse cx="1270.8" cy="698" rx="10.8" ry="13.1"/></g></svg>